<svg width="1440" height="1024" viewBox="0 0 1440 1024" fill="none" xmlns="http://www.w3.org/2000/svg">
<rect width="1440" height="1024" fill="url(#paint0_radial_17_140)"/>
<path d="M731.985 450.456C728.356 447.006 722.81 442.963 719.042 441.021C716.494 439.708 716.187 439.682 716.664 440.822C718.078 444.201 719.395 451.083 719.384 455.028C719.364 462.376 717.512 468.171 712.926 475.24C708.627 481.869 705.082 485.858 689.962 501.084C680.884 510.227 674.862 516.74 672.363 520.123C666.194 528.473 661.895 538.245 660.511 547.07C659.686 552.329 659.883 561.402 660.934 566.526C662.535 574.34 666.24 580.738 668.573 583.907C671.482 589.328 681.966 599.941 683.793 600.288C689.754 604.283 697.067 607.302 705.021 609.052C711.194 610.41 725.373 610.288 731.98 608.82C744.219 606.1 753.984 600.563 762.612 591.449C773.914 579.51 779.058 565.5 778.999 546.818C778.976 539.285 778.802 537.48 777.588 532.163C776.03 525.336 773.801 519.351 770.684 513.625C768.388 509.407 764.131 503.611 763.329 503.611C763.054 503.611 762.829 504.506 762.829 505.6C762.829 508.464 761.548 514.209 760.111 517.79C758.189 522.578 753.726 528.935 748.094 534.903C742.243 541.105 740.76 543.584 740.787 547.113C740.811 550.26 741.898 552.305 744.46 554.021C746.261 555.228 747.025 555.409 750.312 555.409C753.551 555.409 754.432 555.206 756.464 553.998C757.769 553.222 758.836 552.324 758.836 552.002C758.836 551.636 759.005 551.596 759.288 551.896C759.926 552.573 759.026 561.514 757.764 567.031C754.854 579.763 749.094 588.775 739.878 595.015C727.993 603.062 712.904 603.684 698.949 596.703C694.956 594.705 693.459 593.584 689.692 589.772C686.632 586.674 684.493 583.954 682.984 581.241C674.827 566.578 677.03 548.762 689.058 532.125C690.449 530.2 697.918 522.258 705.655 514.476C719.532 500.517 725.464 493.873 728.878 488.467C731.017 485.081 731.166 485.535 730.428 493.179C729.614 501.628 727.383 509.104 723.054 517.9C720.618 522.85 718.446 526.312 712.204 535.195C700.206 552.268 697.208 567.248 703.782 577.274C707.259 582.577 713.091 586.572 719.896 588.31C723.993 589.357 729.804 589.037 733.045 587.586C737.657 585.521 743.98 578.11 745.867 572.557C747.364 568.151 747.324 568.056 743.894 567.956C737.041 567.756 730.482 562.707 727.803 555.569C726.662 552.531 726.478 546.616 727.404 542.775C728.305 539.034 731.132 533.148 736.385 524.077C746.242 507.054 749.343 496.495 748.294 483.531C747.311 471.379 741.415 459.422 731.985 450.456Z" fill="url(#paint1_linear_17_140)"/>
<path d="M745.867 572.557C743.98 578.11 737.657 585.521 733.045 587.586C729.804 589.037 723.993 589.357 719.896 588.31C713.091 586.572 707.259 582.577 703.782 577.274C697.208 567.248 700.206 552.268 712.204 535.195C718.446 526.312 720.618 522.85 723.054 517.9C727.383 509.104 729.614 501.628 730.428 493.179C731.166 485.535 731.017 485.081 728.878 488.467C725.464 493.873 719.532 500.517 705.655 514.476C697.918 522.258 690.449 530.2 689.058 532.125C677.03 548.762 674.827 566.578 682.984 581.241C684.493 583.954 686.632 586.674 689.692 589.772C693.459 593.584 694.956 594.705 698.949 596.703C712.904 603.684 727.993 603.062 739.878 595.015C739.878 595.015 744.642 589.076 745.867 584.528C747.078 580.031 745.867 572.557 745.867 572.557Z" fill="#B22A0A"/>
<path d="M745.867 572.557C743.98 578.11 737.657 585.521 733.045 587.586C729.804 589.037 723.993 589.357 719.896 588.31C713.091 586.572 707.259 582.577 703.782 577.274C697.208 567.248 700.206 552.268 712.204 535.195C718.446 526.312 720.618 522.85 723.054 517.9C727.383 509.104 729.614 501.628 730.428 493.179C731.166 485.535 731.017 485.081 728.878 488.467C725.464 493.873 719.532 500.517 705.655 514.476C697.918 522.258 690.449 530.2 689.058 532.125C677.03 548.762 674.827 566.578 682.984 581.241C684.493 583.954 686.632 586.674 689.692 589.772C693.459 593.584 694.956 594.705 698.949 596.703C712.904 603.684 727.993 603.062 739.878 595.015C739.878 595.015 744.642 589.076 745.867 584.528C747.078 580.031 745.867 572.557 745.867 572.557Z" fill="#CA3F0D"/>
<defs>
<radialGradient id="paint0_radial_17_140" cx="0" cy="0" r="1" gradientUnits="userSpaceOnUse" gradientTransform="translate(720 512) rotate(90) scale(799.5 1124.3)">
<stop stop-color="#FFA842"/>
<stop offset="0.5" stop-color="#CC4F00"/>
<stop offset="1" stop-color="#692800"/>
</radialGradient>
<linearGradient id="paint1_linear_17_140" x1="719.5" y1="440" x2="719.5" y2="610" gradientUnits="userSpaceOnUse">
<stop stop-color="#FFD28A"/>
<stop offset="0.55" stop-color="#FF8A2A"/>
<stop offset="1" stop-color="#FF5C00"/>
</linearGradient>
</defs>
</svg>
