<svg width="20" height="22" viewBox="0 0 20 22" fill="none" xmlns="http://www.w3.org/2000/svg">
<path d="M2.31802 19.5355C3.63604 21 5.75736 21 10 21C14.2426 21 16.364 21 17.682 19.5355C19 18.0711 19 15.714 19 11C19 6.28595 19 3.92893 17.682 2.46447C16.364 1 14.2426 1 10 1C5.75736 1 3.63604 1 2.31802 2.46447C1 3.92893 1 6.28595 1 11C1 15.714 1 18.0711 2.31802 19.5355Z" stroke="white" stroke-width="2"/>
<path d="M5 7C5 6.53501 5 6.30252 5.05111 6.11177C5.18981 5.59413 5.59413 5.18981 6.11177 5.05111C6.30252 5 6.53501 5 7 5H13C13.465 5 13.6975 5 13.8882 5.05111C14.4059 5.18981 14.8102 5.59413 14.9489 6.11177C15 6.30252 15 6.53501 15 7C15 7.46499 15 7.69748 14.9489 7.88823C14.8102 8.40587 14.4059 8.81019 13.8882 8.94889C13.6975 9 13.465 9 13 9H7C6.53501 9 6.30252 9 6.11177 8.94889C5.59413 8.81019 5.18981 8.40587 5.05111 7.88823C5 7.69748 5 7.46499 5 7Z" stroke="white" stroke-width="2"/>
<path d="M6 13C6.55229 13 7 12.5523 7 12C7 11.4477 6.55229 11 6 11C5.44772 11 5 11.4477 5 12C5 12.5523 5.44772 13 6 13Z" fill="white"/>
<path d="M6 17C6.55229 17 7 16.5523 7 16C7 15.4477 6.55229 15 6 15C5.44772 15 5 15.4477 5 16C5 16.5523 5.44772 17 6 17Z" fill="white"/>
<path d="M10 13C10.5523 13 11 12.5523 11 12C11 11.4477 10.5523 11 10 11C9.44772 11 9 11.4477 9 12C9 12.5523 9.44772 13 10 13Z" fill="white"/>
<path d="M10 17C10.5523 17 11 16.5523 11 16C11 15.4477 10.5523 15 10 15C9.44772 15 9 15.4477 9 16C9 16.5523 9.44772 17 10 17Z" fill="white"/>
<path d="M14 13C14.5523 13 15 12.5523 15 12C15 11.4477 14.5523 11 14 11C13.4477 11 13 11.4477 13 12C13 12.5523 13.4477 13 14 13Z" fill="white"/>
<path d="M14 17C14.5523 17 15 16.5523 15 16C15 15.4477 14.5523 15 14 15C13.4477 15 13 15.4477 13 16C13 16.5523 13.4477 17 14 17Z" fill="white"/>
</svg>
