<svg width="40" height="40" viewBox="0 0 40 40" fill="none" xmlns="http://www.w3.org/2000/svg">
<path d="M0 1.65975C0 0.743096 0.743096 0 1.65975 0H38.3403C39.2569 0 40 0.743096 40 1.65975V38.3403C40 39.2569 39.2569 40 38.3403 40H1.65975C0.743096 40 0 39.2569 0 38.3403V1.65975Z" fill="#D76840"/>
<path d="M22.8035 3.4791C21.9887 2.7145 20.7433 1.81852 19.8972 1.38812C19.325 1.09715 19.2561 1.09144 19.3632 1.34411C19.6806 2.09292 19.9765 3.61808 19.9741 4.49244C19.9694 6.12087 19.5536 7.40525 18.5239 8.97197C17.5583 10.441 16.7623 11.3252 13.3671 14.6997C11.3286 16.7258 9.97638 18.1695 9.41519 18.9191C8.02981 20.7697 7.06459 22.9355 6.75372 24.8914C6.56853 26.0567 6.61281 28.0676 6.84867 29.2033C7.20831 30.9351 8.04031 32.3529 8.56421 33.0553C9.2174 34.2568 11.5716 36.6087 11.9818 36.6856C13.3205 37.5711 14.9626 38.2403 16.7486 38.6281C18.1349 38.929 21.3188 38.902 22.8023 38.5767C25.5507 37.9739 27.7435 36.7468 29.6811 34.7267C32.2189 32.0809 33.3741 28.9758 33.3609 24.8354C33.3555 23.166 33.3165 22.7659 33.044 21.5875C32.6941 20.0745 32.1935 18.748 31.4937 17.4791C30.978 16.5442 30.0221 15.2597 29.842 15.2597C29.7803 15.2597 29.7298 15.458 29.7298 15.7004C29.7298 16.3353 29.4422 17.6084 29.1194 18.402C28.6878 19.4633 27.6855 20.8721 26.421 22.1948C25.1071 23.5694 24.774 24.1186 24.7801 24.9008C24.7856 25.5983 25.0296 26.0515 25.6049 26.4318C26.0093 26.6992 26.1808 26.7393 26.919 26.7393C27.6464 26.7393 27.8442 26.6945 28.3005 26.4266C28.5934 26.2546 28.833 26.0556 28.833 25.9842C28.833 25.9032 28.8711 25.8944 28.9347 25.961C29.0778 26.1108 28.8757 28.0924 28.5924 29.3153C27.9388 32.1369 26.6454 34.1341 24.5759 35.5171C21.9072 37.3005 18.5188 37.4384 15.3851 35.8911C14.4886 35.4485 14.1523 35.2 13.3066 34.3551C12.6194 33.6686 12.139 33.0657 11.8001 32.4644C9.96842 29.2147 10.4631 25.2664 13.1641 21.5791C13.4765 21.1525 15.1536 19.3924 16.891 17.6676C20.0071 14.5739 21.3393 13.1015 22.106 11.9034C22.5861 11.1529 22.6197 11.2535 22.454 12.9477C22.2711 14.8201 21.7702 16.477 20.7981 18.4264C20.251 19.5235 19.7633 20.2908 18.3616 22.2595C15.6675 26.0434 14.9942 29.3632 16.4704 31.5852C17.2512 32.7605 18.5609 33.6458 20.0889 34.0311C21.009 34.2632 22.3139 34.1921 23.0416 33.8706C24.0772 33.413 25.497 31.7706 25.9207 30.5399C26.2571 29.5633 26.248 29.5423 25.4777 29.5201C23.9389 29.4757 22.4661 28.3568 21.8645 26.7749C21.6083 26.1016 21.5668 24.7906 21.7748 23.9394C21.9773 23.1102 22.612 21.8059 23.7916 19.7955C26.0051 16.0227 26.7014 13.6827 26.4659 10.8094C26.2452 8.11632 24.9211 5.46625 22.8035 3.4791Z" fill="white"/>
<path d="M25.9207 30.5399C25.497 31.7706 24.0772 33.413 23.0416 33.8706C22.3139 34.1921 21.009 34.2632 20.0889 34.0311C18.5609 33.6458 17.2512 32.7605 16.4704 31.5852C14.9942 29.3632 15.6675 26.0434 18.3616 22.2595C19.7633 20.2908 20.251 19.5235 20.7981 18.4264C21.7702 16.477 22.2711 14.8201 22.454 12.9477C22.6197 11.2535 22.5861 11.1529 22.106 11.9034C21.3393 13.1015 20.0071 14.5739 16.891 17.6676C15.1536 19.3924 13.4765 21.1525 13.1641 21.5791C10.4631 25.2664 9.96842 29.2147 11.8001 32.4644C12.139 33.0657 12.6194 33.6686 13.3066 34.3551C14.1523 35.2 14.4886 35.4485 15.3851 35.8911C18.5188 37.4384 21.9072 37.3005 24.5759 35.5171C24.5759 35.5171 25.6457 34.2008 25.9207 33.1928C26.1927 32.1963 25.9207 30.5399 25.9207 30.5399Z" fill="#B22A0A"/>
<path d="M25.9207 30.5399C25.497 31.7706 24.0772 33.413 23.0416 33.8706C22.3139 34.1921 21.009 34.2632 20.0889 34.0311C18.5609 33.6458 17.2512 32.7605 16.4704 31.5852C14.9942 29.3632 15.6675 26.0434 18.3616 22.2595C19.7633 20.2908 20.251 19.5235 20.7981 18.4264C21.7702 16.477 22.2711 14.8201 22.454 12.9477C22.6197 11.2535 22.5861 11.1529 22.106 11.9034C21.3393 13.1015 20.0071 14.5739 16.891 17.6676C15.1536 19.3924 13.4765 21.1525 13.1641 21.5791C10.4631 25.2664 9.96842 29.2147 11.8001 32.4644C12.139 33.0657 12.6194 33.6686 13.3066 34.3551C14.1523 35.2 14.4886 35.4485 15.3851 35.8911C18.5188 37.4384 21.9072 37.3005 24.5759 35.5171C24.5759 35.5171 25.6457 34.2008 25.9207 33.1928C26.1927 32.1963 25.9207 30.5399 25.9207 30.5399Z" fill="#CA3F0D"/>
</svg>
