<svg width="61" height="80" viewBox="0 0 61 80" fill="none" xmlns="http://www.w3.org/2000/svg">
<path d="M51.2723 3.68915C47.5838 1.97955 43.6555 0.719835 39.5172 0C39.0074 0.899794 38.4076 2.12951 38.0178 3.11928C33.6396 2.45944 29.2914 2.45944 25.0033 3.11928C24.5834 2.12951 23.9837 0.899794 23.4739 0C19.3356 0.719835 15.4073 1.97955 11.7188 3.68915C4.2819 14.9066 2.27273 25.8542 3.26232 36.6217C8.21026 40.3109 12.9783 42.5303 17.6863 44C18.8558 42.4104 19.8754 40.7008 20.775 38.9312C19.0657 38.3013 17.4464 37.4915 15.917 36.5617C16.3369 36.2618 16.7267 35.9319 17.1165 35.6319C26.5026 40.0109 36.6684 40.0109 45.9345 35.6319C46.3243 35.9618 46.7142 36.2618 47.134 36.5617C45.6046 37.4915 43.9553 38.2713 42.276 38.9312C43.1757 40.7008 44.1952 42.4104 45.3647 44C50.0728 42.5303 54.8708 40.3109 59.7887 36.6217C60.9582 24.1146 57.7796 13.287 51.3323 3.68915H51.2723ZM22.0345 30.0232C19.2157 30.0232 16.9066 27.4138 16.9066 24.2045C16.9066 20.9953 19.1557 18.3859 22.0345 18.3859C24.9133 18.3859 27.1923 20.9953 27.1623 24.2045C27.1623 27.3838 24.9133 30.0232 22.0345 30.0232ZM40.9566 30.0232C38.1378 30.0232 35.8287 27.4138 35.8287 24.2045C35.8287 20.9953 38.0778 18.3859 40.9566 18.3859C43.8354 18.3859 46.1144 20.9953 46.0844 24.2045C46.0844 27.3838 43.8354 30.0232 40.9566 30.0232Z" fill="white"/>
<path d="M0 75.168C0 74.7943 0.10026 74.4684 0.300781 74.1904C0.501302 73.9079 0.763346 73.6732 1.08691 73.4863C1.41504 73.2995 1.78874 73.1605 2.20801 73.0693C2.63184 72.9736 3.0625 72.9258 3.5 72.9258C3.74154 72.9258 3.94889 72.9303 4.12207 72.9395C4.29525 72.9486 4.4707 72.9622 4.64844 72.9805V72.7275C4.64844 72.3949 4.51855 72.1465 4.25879 71.9824C4.00358 71.8184 3.66634 71.7363 3.24707 71.7363C2.86426 71.7363 2.47461 71.791 2.07812 71.9004C1.68164 72.0052 1.30566 72.1602 0.950195 72.3652L0.375977 71.2578C0.795247 71.0163 1.24414 70.8271 1.72266 70.6904C2.20573 70.5492 2.71387 70.4785 3.24707 70.4785C3.59342 70.4785 3.93294 70.5173 4.26562 70.5947C4.60286 70.6722 4.90365 70.7998 5.16797 70.9775C5.43685 71.1553 5.65104 71.3877 5.81055 71.6748C5.97005 71.9574 6.0498 72.3083 6.0498 72.7275V77H4.64844V76.0635C4.42513 76.4098 4.09473 76.6787 3.65723 76.8701C3.22428 77.0615 2.75716 77.1572 2.25586 77.1572C1.94596 77.1572 1.65202 77.1139 1.37402 77.0273C1.10059 76.9453 0.863607 76.82 0.663086 76.6514C0.462565 76.4827 0.300781 76.2754 0.177734 76.0293C0.0592448 75.7786 0 75.4915 0 75.168ZM2.61816 75.8926C2.89616 75.8926 3.15592 75.8584 3.39746 75.79C3.64355 75.7171 3.86003 75.6191 4.04688 75.4961C4.23372 75.3685 4.37956 75.2158 4.48438 75.0381C4.59375 74.8604 4.64844 74.6644 4.64844 74.4502V74.2109C4.42513 74.1745 4.21549 74.154 4.01953 74.1494C3.82357 74.1449 3.65039 74.1426 3.5 74.1426C2.80729 74.1426 2.2832 74.2337 1.92773 74.416C1.57682 74.5983 1.40137 74.8239 1.40137 75.0928C1.40137 75.626 1.80697 75.8926 2.61816 75.8926Z" fill="white"/>
<path d="M13.7061 77H12.291V73.0693C12.291 72.5726 12.1976 72.2285 12.0107 72.0371C11.8239 71.8457 11.5527 71.75 11.1973 71.75C10.6732 71.75 10.2448 71.9619 9.91211 72.3857C9.58398 72.8096 9.41992 73.3952 9.41992 74.1426V77H8.00488V70.6289H9.41992V72.2285C9.5612 71.6771 9.82324 71.2487 10.2061 70.9434C10.5889 70.6335 11.0605 70.4785 11.6211 70.4785C12.2728 70.4785 12.7832 70.6904 13.1523 71.1143C13.5215 71.5381 13.7061 72.1898 13.7061 73.0693V77Z" fill="white"/>
<path d="M17.6641 79.7002C16.6934 79.7002 15.9095 79.3379 15.3125 78.6133L16.1533 77.6699C16.3675 77.9251 16.5954 78.1143 16.8369 78.2373C17.0785 78.3649 17.3542 78.4287 17.6641 78.4287C18.1426 78.4287 18.4958 78.2965 18.7236 78.0322C18.9515 77.7725 19.0654 77.4284 19.0654 77V71.9072H17.623V70.6289H20.4805V77C20.4805 77.4102 20.4121 77.7816 20.2754 78.1143C20.1387 78.4469 19.9473 78.7318 19.7012 78.9688C19.4551 79.2057 19.1589 79.3857 18.8125 79.5088C18.4661 79.6364 18.0833 79.7002 17.6641 79.7002ZM20.6309 69.8018H18.9082V68.0791H20.6309V69.8018Z" fill="white"/>
<path d="M22.9277 75.168C22.9277 74.7943 23.028 74.4684 23.2285 74.1904C23.429 73.9079 23.6911 73.6732 24.0146 73.4863C24.3428 73.2995 24.7165 73.1605 25.1357 73.0693C25.5596 72.9736 25.9902 72.9258 26.4277 72.9258C26.6693 72.9258 26.8766 72.9303 27.0498 72.9395C27.223 72.9486 27.3984 72.9622 27.5762 72.9805V72.7275C27.5762 72.3949 27.4463 72.1465 27.1865 71.9824C26.9313 71.8184 26.5941 71.7363 26.1748 71.7363C25.792 71.7363 25.4023 71.791 25.0059 71.9004C24.6094 72.0052 24.2334 72.1602 23.8779 72.3652L23.3037 71.2578C23.723 71.0163 24.1719 70.8271 24.6504 70.6904C25.1335 70.5492 25.6416 70.4785 26.1748 70.4785C26.5212 70.4785 26.8607 70.5173 27.1934 70.5947C27.5306 70.6722 27.8314 70.7998 28.0957 70.9775C28.3646 71.1553 28.5788 71.3877 28.7383 71.6748C28.8978 71.9574 28.9775 72.3083 28.9775 72.7275V77H27.5762V76.0635C27.3529 76.4098 27.0225 76.6787 26.585 76.8701C26.152 77.0615 25.6849 77.1572 25.1836 77.1572C24.8737 77.1572 24.5798 77.1139 24.3018 77.0273C24.0283 76.9453 23.7913 76.82 23.5908 76.6514C23.3903 76.4827 23.2285 76.2754 23.1055 76.0293C22.987 75.7786 22.9277 75.4915 22.9277 75.168ZM25.5459 75.8926C25.8239 75.8926 26.0837 75.8584 26.3252 75.79C26.5713 75.7171 26.7878 75.6191 26.9746 75.4961C27.1615 75.3685 27.3073 75.2158 27.4121 75.0381C27.5215 74.8604 27.5762 74.6644 27.5762 74.4502V74.2109C27.3529 74.1745 27.1432 74.154 26.9473 74.1494C26.7513 74.1449 26.5781 74.1426 26.4277 74.1426C25.735 74.1426 25.2109 74.2337 24.8555 74.416C24.5046 74.5983 24.3291 74.8239 24.3291 75.0928C24.3291 75.626 24.7347 75.8926 25.5459 75.8926Z" fill="white"/>
<path d="M30.5703 75.168C30.5703 74.7943 30.6706 74.4684 30.8711 74.1904C31.0716 73.9079 31.3337 73.6732 31.6572 73.4863C31.9854 73.2995 32.359 73.1605 32.7783 73.0693C33.2021 72.9736 33.6328 72.9258 34.0703 72.9258C34.3118 72.9258 34.5192 72.9303 34.6924 72.9395C34.8656 72.9486 35.041 72.9622 35.2188 72.9805V72.7275C35.2188 72.3949 35.0889 72.1465 34.8291 71.9824C34.5739 71.8184 34.2367 71.7363 33.8174 71.7363C33.4346 71.7363 33.0449 71.791 32.6484 71.9004C32.252 72.0052 31.876 72.1602 31.5205 72.3652L30.9463 71.2578C31.3656 71.0163 31.8145 70.8271 32.293 70.6904C32.776 70.5492 33.2842 70.4785 33.8174 70.4785C34.1637 70.4785 34.5033 70.5173 34.8359 70.5947C35.1732 70.6722 35.474 70.7998 35.7383 70.9775C36.0072 71.1553 36.2214 71.3877 36.3809 71.6748C36.5404 71.9574 36.6201 72.3083 36.6201 72.7275V77H35.2188V76.0635C34.9954 76.4098 34.665 76.6787 34.2275 76.8701C33.7946 77.0615 33.3275 77.1572 32.8262 77.1572C32.5163 77.1572 32.2223 77.1139 31.9443 77.0273C31.6709 76.9453 31.4339 76.82 31.2334 76.6514C31.0329 76.4827 30.8711 76.2754 30.748 76.0293C30.6296 75.7786 30.5703 75.4915 30.5703 75.168ZM33.1885 75.8926C33.4665 75.8926 33.7262 75.8584 33.9678 75.79C34.2139 75.7171 34.4303 75.6191 34.6172 75.4961C34.804 75.3685 34.9499 75.2158 35.0547 75.0381C35.1641 74.8604 35.2188 74.6644 35.2188 74.4502V74.2109C34.9954 74.1745 34.7858 74.154 34.5898 74.1494C34.3939 74.1449 34.2207 74.1426 34.0703 74.1426C33.3776 74.1426 32.8535 74.2337 32.498 74.416C32.1471 74.5983 31.9717 74.8239 31.9717 75.0928C31.9717 75.626 32.3773 75.8926 33.1885 75.8926Z" fill="white"/>
<path d="M44.5566 70.6289L41.8086 78.2441C41.6035 78.7956 41.305 79.1738 40.9131 79.3789C40.5212 79.584 40.054 79.6865 39.5117 79.6865C39.3249 79.6865 39.1243 79.6683 38.9102 79.6318C38.696 79.5954 38.4727 79.5339 38.2402 79.4473L38.5342 78.1484C38.7301 78.2214 38.9102 78.2715 39.0742 78.2988C39.2383 78.3307 39.3841 78.3467 39.5117 78.3467C39.9355 78.3467 40.2249 78.1598 40.3799 77.7861L40.6328 77.1709L38.1992 70.6289H39.6689L41.4189 75.4482L43.0391 70.6289H44.5566Z" fill="white"/>
<path d="M45.8555 75.168C45.8555 74.7943 45.9557 74.4684 46.1562 74.1904C46.3568 73.9079 46.6188 73.6732 46.9424 73.4863C47.2705 73.2995 47.6442 73.1605 48.0635 73.0693C48.4873 72.9736 48.918 72.9258 49.3555 72.9258C49.597 72.9258 49.8044 72.9303 49.9775 72.9395C50.1507 72.9486 50.3262 72.9622 50.5039 72.9805V72.7275C50.5039 72.3949 50.374 72.1465 50.1143 71.9824C49.859 71.8184 49.5218 71.7363 49.1025 71.7363C48.7197 71.7363 48.3301 71.791 47.9336 71.9004C47.5371 72.0052 47.1611 72.1602 46.8057 72.3652L46.2314 71.2578C46.6507 71.0163 47.0996 70.8271 47.5781 70.6904C48.0612 70.5492 48.5693 70.4785 49.1025 70.4785C49.4489 70.4785 49.7884 70.5173 50.1211 70.5947C50.4583 70.6722 50.7591 70.7998 51.0234 70.9775C51.2923 71.1553 51.5065 71.3877 51.666 71.6748C51.8255 71.9574 51.9053 72.3083 51.9053 72.7275V77H50.5039V76.0635C50.2806 76.4098 49.9502 76.6787 49.5127 76.8701C49.0798 77.0615 48.6126 77.1572 48.1113 77.1572C47.8014 77.1572 47.5075 77.1139 47.2295 77.0273C46.9561 76.9453 46.7191 76.82 46.5186 76.6514C46.318 76.4827 46.1562 76.2754 46.0332 76.0293C45.9147 75.7786 45.8555 75.4915 45.8555 75.168ZM48.4736 75.8926C48.7516 75.8926 49.0114 75.8584 49.2529 75.79C49.499 75.7171 49.7155 75.6191 49.9023 75.4961C50.0892 75.3685 50.235 75.2158 50.3398 75.0381C50.4492 74.8604 50.5039 74.6644 50.5039 74.4502V74.2109C50.2806 74.1745 50.071 74.154 49.875 74.1494C49.679 74.1449 49.5059 74.1426 49.3555 74.1426C48.6628 74.1426 48.1387 74.2337 47.7832 74.416C47.4323 74.5983 47.2568 74.8239 47.2568 75.0928C47.2568 75.626 47.6624 75.8926 48.4736 75.8926Z" fill="white"/>
<path d="M53.498 75.168C53.498 74.7943 53.5983 74.4684 53.7988 74.1904C53.9993 73.9079 54.2614 73.6732 54.585 73.4863C54.9131 73.2995 55.2868 73.1605 55.7061 73.0693C56.1299 72.9736 56.5605 72.9258 56.998 72.9258C57.2396 72.9258 57.4469 72.9303 57.6201 72.9395C57.7933 72.9486 57.9688 72.9622 58.1465 72.9805V72.7275C58.1465 72.3949 58.0166 72.1465 57.7568 71.9824C57.5016 71.8184 57.1644 71.7363 56.7451 71.7363C56.3623 71.7363 55.9727 71.791 55.5762 71.9004C55.1797 72.0052 54.8037 72.1602 54.4482 72.3652L53.874 71.2578C54.2933 71.0163 54.7422 70.8271 55.2207 70.6904C55.7038 70.5492 56.2119 70.4785 56.7451 70.4785C57.0915 70.4785 57.431 70.5173 57.7637 70.5947C58.1009 70.6722 58.4017 70.7998 58.666 70.9775C58.9349 71.1553 59.1491 71.3877 59.3086 71.6748C59.4681 71.9574 59.5479 72.3083 59.5479 72.7275V77H58.1465V76.0635C57.9232 76.4098 57.5928 76.6787 57.1553 76.8701C56.7223 77.0615 56.2552 77.1572 55.7539 77.1572C55.444 77.1572 55.1501 77.1139 54.8721 77.0273C54.5986 76.9453 54.3617 76.82 54.1611 76.6514C53.9606 76.4827 53.7988 76.2754 53.6758 76.0293C53.5573 75.7786 53.498 75.4915 53.498 75.168ZM56.1162 75.8926C56.3942 75.8926 56.654 75.8584 56.8955 75.79C57.1416 75.7171 57.3581 75.6191 57.5449 75.4961C57.7318 75.3685 57.8776 75.2158 57.9824 75.0381C58.0918 74.8604 58.1465 74.6644 58.1465 74.4502V74.2109C57.9232 74.1745 57.7135 74.154 57.5176 74.1494C57.3216 74.1449 57.1484 74.1426 56.998 74.1426C56.3053 74.1426 55.7812 74.2337 55.4258 74.416C55.0749 74.5983 54.8994 74.8239 54.8994 75.0928C54.8994 75.626 55.305 75.8926 56.1162 75.8926Z" fill="white"/>
</svg>
