<svg width="60" height="76" viewBox="0 0 60 76" fill="none" xmlns="http://www.w3.org/2000/svg">
<path d="M29.9211 0.00183249H30.0874C34.0968 0.00183249 37.8487 1.12515 41.0624 3.08042L40.964 3.02361C44.31 5.02836 47.0193 7.80459 48.9203 11.1269L48.9757 11.2332C50.8356 14.4749 51.9336 18.3726 51.9336 22.5323C51.9336 32.4388 45.7049 40.8573 37.0422 43.8955L36.8866 43.9432C36.7739 43.9798 36.6452 44 36.5129 44C36.2231 44 35.9549 43.901 35.7385 43.7361L35.7421 43.738C35.5132 43.5272 35.3701 43.223 35.3701 42.884C35.3701 42.8748 35.3701 42.8657 35.3701 42.8584V42.8602C35.3701 42.8016 35.3749 42.0527 35.3844 40.6136C35.394 39.1744 35.3987 37.8587 35.3987 36.6664C35.4112 36.5289 35.4184 36.3713 35.4184 36.2101C35.4184 34.7587 34.8408 33.4467 33.909 32.4993C35.0142 32.3875 36.0121 32.2006 36.9814 31.9404L36.8455 31.9715C37.8702 31.6783 38.7644 31.288 39.5941 30.7951L39.5387 30.8262C40.4472 30.3131 41.2162 29.6607 41.8492 28.8874L41.8599 28.8746C42.5252 28.0023 43.0456 26.9761 43.3621 25.8601L43.3782 25.796C43.752 24.5444 43.9666 23.1059 43.9666 21.6161C43.9666 21.5336 43.9666 21.4493 43.9648 21.3669V21.3797C43.9648 21.3394 43.9666 21.2936 43.9666 21.2478C43.9666 18.9608 43.1046 16.8809 41.6972 15.3288L41.7026 15.3343C42.003 14.528 42.1765 13.5971 42.1765 12.624C42.1765 11.4348 41.9172 10.3096 41.454 9.2999L41.4737 9.34755C41.268 9.30723 41.0337 9.28341 40.7923 9.28341C40.195 9.28341 39.6317 9.42635 39.131 9.67923L39.1524 9.67007C38.1367 10.0549 37.2675 10.491 36.4485 11.0005L36.5164 10.9601L35.4273 11.6638C33.7785 11.18 31.8847 10.9015 29.9282 10.9015C27.9718 10.9015 26.078 11.18 24.2825 11.7005L24.4273 11.6638C24.1221 11.4488 23.7162 11.1843 23.2095 10.8704C22.5424 10.4782 21.7538 10.0989 20.9347 9.78002L20.8167 9.7397C20.2927 9.4575 19.6722 9.29257 19.0123 9.29257C18.7905 9.29257 18.5724 9.3109 18.3613 9.34755L18.3846 9.34388C17.9411 10.3041 17.6818 11.4311 17.6818 12.6204C17.6818 13.5934 17.8552 14.5262 18.1736 15.3856L18.1557 15.3325C16.7518 16.8791 15.8916 18.959 15.8916 21.2459C15.8916 21.2917 15.8916 21.3394 15.8934 21.3852V21.3779C15.8916 21.4493 15.8916 21.5318 15.8916 21.6161C15.8916 23.0986 16.1062 24.5316 16.5068 25.8803L16.48 25.7759C16.818 26.9541 17.3313 27.9785 18.0001 28.8783L17.984 28.8544C18.6171 29.6516 19.3825 30.3076 20.2498 30.8005L20.2891 30.8207C21.0617 31.2825 21.9577 31.6728 22.9001 31.9459L22.9824 31.966C23.8157 32.1951 24.8136 32.382 25.8347 32.4864L25.917 32.4938C25.1462 33.2781 24.633 34.3263 24.515 35.4954L24.5132 35.5174C24.143 35.7025 23.712 35.8527 23.2631 35.9499L23.2256 35.9572C22.7678 36.0506 22.2438 36.1038 21.7055 36.1038C21.6662 36.1038 21.6268 36.1038 21.5875 36.1038H21.5928C20.8882 36.0891 20.2409 35.8546 19.7062 35.4661L19.7169 35.4734C19.0534 34.9988 18.5169 34.3831 18.1414 33.6666L18.1288 33.6391C17.7748 33.0234 17.308 32.5139 16.7554 32.1236L16.7393 32.1126C16.3369 31.8029 15.863 31.561 15.3516 31.4163L15.323 31.4089L14.7507 31.321C14.7096 31.3173 14.6613 31.3155 14.613 31.3155C14.3626 31.3155 14.1248 31.3668 13.9084 31.4566L13.9209 31.4511C13.7683 31.539 13.7206 31.6514 13.7778 31.7883C13.8476 31.9459 13.9334 32.0815 14.0372 32.2006L14.0354 32.1987C14.1445 32.3307 14.2678 32.4461 14.402 32.5469L14.4073 32.5506L14.6076 32.6972C15.1137 32.9684 15.5304 33.3459 15.8469 33.8022L15.8541 33.8132C16.1957 34.2475 16.4961 34.7386 16.7375 35.2645L16.7554 35.3085L17.0415 35.9828C17.283 36.7195 17.7211 37.3352 18.2934 37.7805L18.3023 37.7878C18.8388 38.2167 19.4862 38.5245 20.1926 38.6638L20.2212 38.6674C20.8113 38.7847 21.4981 38.858 22.1991 38.8727H22.2116C22.2921 38.8763 22.3851 38.8764 22.4798 38.8764C22.9466 38.8764 23.4044 38.8379 23.8515 38.7627L23.8032 38.7701L24.4613 38.6528C24.4613 39.3968 24.4661 40.2629 24.4756 41.2513C24.4852 42.2396 24.4899 42.7728 24.4899 42.851V42.8767C24.4899 43.2157 24.3469 43.5199 24.118 43.7306C23.9051 43.8937 23.6369 43.9927 23.3454 43.9927C23.2113 43.9927 23.0825 43.9725 22.9627 43.934L22.9716 43.9359C14.157 40.8408 7.93359 32.4223 7.93359 22.514C7.93359 18.3579 9.02805 14.4639 10.9398 11.1177L10.8825 11.224C12.839 7.79543 15.5483 5.0192 18.7905 3.07126L18.8943 3.01445C22.0042 1.11965 25.7525 0 29.7548 0H29.93H29.9211V0.00183249ZM16.2583 32.3747C16.3155 32.2378 16.2487 32.1206 16.058 32.0228C15.8672 31.9642 15.7432 31.9837 15.686 32.0815C15.6288 32.2183 15.6955 32.3356 15.8863 32.4333C16.058 32.5506 16.182 32.531 16.2583 32.3747ZM17.1471 33.3734C17.2806 33.2756 17.2615 33.1193 17.0898 32.9043C16.8991 32.7283 16.7465 32.699 16.632 32.8163C16.4985 32.914 16.5176 33.0704 16.6892 33.2854C16.8788 33.4772 17.0314 33.5059 17.1471 33.3715V33.3734ZM18.0055 34.6928C18.1771 34.5559 18.1771 34.3702 18.0055 34.1357C17.8528 33.8816 17.6907 33.8229 17.519 33.9598C17.3473 34.0575 17.3473 34.2334 17.519 34.4875C17.6907 34.7416 17.8528 34.81 18.0055 34.6928ZM19.2072 35.926C19.3598 35.7697 19.3217 35.584 19.0928 35.369C18.8638 35.1344 18.6731 35.1051 18.5205 35.281C18.3488 35.4374 18.387 35.6231 18.6349 35.8381C18.8638 36.0726 19.0546 36.0995 19.2072 35.9187V35.926ZM20.84 36.659C20.8972 36.444 20.7732 36.2876 20.468 36.1899C20.1818 36.1117 20.0006 36.1801 19.9243 36.3952C19.848 36.6102 19.972 36.7568 20.2963 36.8349C20.5824 36.9535 20.7636 36.8948 20.84 36.659ZM22.6444 36.8056C22.6444 36.5515 22.4822 36.444 22.1579 36.4831C21.8527 36.4831 21.7001 36.5906 21.7001 36.8056C21.7001 37.0597 21.8623 37.1672 22.1866 37.1282C22.4918 37.1294 22.6444 37.0206 22.6444 36.8056ZM24.3057 36.5124C24.2676 36.2974 24.0959 36.2095 23.7907 36.2486C23.4855 36.3072 23.352 36.4538 23.3901 36.6884C23.4283 36.9229 23.5999 37.0011 23.9051 36.9229C24.2104 36.8447 24.3427 36.7079 24.3057 36.5124Z" fill="white"/>
<path d="M2.98047 67.8018H1.25781V66.0791H2.98047V67.8018ZM4.2793 75H0V73.7285H1.4082V69.9072H0V68.6289H2.82324V73.7285H4.2793V75Z" fill="white"/>
<path d="M12.6123 75H6.91113V73.7422L10.541 69.9072H8.15527V71.1924H6.91113V68.6289H12.4824V69.9072L8.8457 73.7285H11.3613V72.4639H12.6123V75Z" fill="white"/>
<path d="M18.2656 67.8018H16.543V66.0791H18.2656V67.8018ZM19.5645 75H15.2852V73.7285H16.6934V69.9072H15.2852V68.6289H18.1084V73.7285H19.5645V75Z" fill="white"/>
<path d="M28.3008 72.9697C28.2279 73.6396 27.9635 74.1729 27.5078 74.5693C27.0566 74.9613 26.4915 75.1572 25.8125 75.1572C25.4388 75.1572 25.097 75.0957 24.7871 74.9727C24.4772 74.8496 24.2129 74.6787 23.9941 74.46C23.7754 74.2412 23.6045 73.9792 23.4814 73.6738C23.363 73.3639 23.3037 73.0267 23.3037 72.6621V69.9072H21.8613V68.6289H23.3037V66.0791H24.7188V68.6289H27.3916V69.9072H24.7188V72.6621C24.7188 73.0723 24.819 73.3776 25.0195 73.5781C25.2201 73.7786 25.4844 73.8789 25.8125 73.8789C26.2135 73.8789 26.512 73.7627 26.708 73.5303C26.904 73.2979 27.0202 73.0176 27.0566 72.6895L28.3008 72.9697Z" fill="white"/>
<path d="M36.0117 72.2725C35.9023 72.71 35.7565 73.1064 35.5742 73.4619C35.3919 73.8174 35.1686 74.1204 34.9043 74.3711C34.6445 74.6217 34.3392 74.8154 33.9883 74.9521C33.6419 75.0889 33.2432 75.1572 32.792 75.1572C32.1676 75.1572 31.639 75.0296 31.2061 74.7744C30.7731 74.5146 30.4176 74.1706 30.1396 73.7422C29.8662 73.3092 29.668 72.8171 29.5449 72.2656C29.4264 71.7096 29.3672 71.1331 29.3672 70.5361C29.3672 69.9391 29.4264 69.3626 29.5449 68.8066C29.668 68.2507 29.8639 67.7607 30.1328 67.3369C30.4062 66.9131 30.7526 66.5736 31.1719 66.3184C31.5911 66.0586 32.1038 65.9287 32.71 65.9287C32.9059 65.9287 33.1042 65.9538 33.3047 66.0039C33.5052 66.054 33.6921 66.1315 33.8652 66.2363C34.0384 66.3366 34.1888 66.4619 34.3164 66.6123C34.4486 66.7627 34.542 66.9359 34.5967 67.1318V66.0791H35.875V69.4561H34.5967C34.5967 69.1781 34.5625 68.9046 34.4941 68.6357C34.4258 68.3623 34.3164 68.1208 34.166 67.9111C34.0156 67.7015 33.8265 67.5306 33.5986 67.3984C33.3708 67.2663 33.1019 67.2002 32.792 67.2002C32.391 67.2002 32.0628 67.2982 31.8076 67.4941C31.5524 67.6901 31.3473 67.9476 31.1924 68.2666C31.0374 68.5856 30.9281 68.9434 30.8643 69.3398C30.805 69.7363 30.7754 70.1351 30.7754 70.5361C30.7754 70.9372 30.805 71.3382 30.8643 71.7393C30.9281 72.1403 31.0352 72.5003 31.1855 72.8193C31.3359 73.1338 31.541 73.389 31.8008 73.585C32.0605 73.7809 32.391 73.8789 32.792 73.8789C33.3708 73.8789 33.8151 73.6943 34.125 73.3252C34.4395 72.9561 34.6901 72.4593 34.877 71.835L36.0117 72.2725Z" fill="white"/>
<path d="M43.1826 75H41.7676V71.0693C41.7676 70.5726 41.6742 70.2285 41.4873 70.0371C41.3005 69.8457 41.0293 69.75 40.6738 69.75C40.1497 69.75 39.7214 69.9619 39.3887 70.3857C39.0605 70.8096 38.8965 71.3952 38.8965 72.1426V75H37.4814V66.0791H38.8965V70.2285C39.0378 69.6771 39.2998 69.2487 39.6826 68.9434C40.0654 68.6335 40.5371 68.4785 41.0977 68.4785C41.7493 68.4785 42.2598 68.6904 42.6289 69.1143C42.998 69.5381 43.1826 70.1898 43.1826 71.0693V75Z" fill="white"/>
<path d="M44.7617 73.168C44.7617 72.7943 44.862 72.4684 45.0625 72.1904C45.263 71.9079 45.5251 71.6732 45.8486 71.4863C46.1768 71.2995 46.5505 71.1605 46.9697 71.0693C47.3936 70.9736 47.8242 70.9258 48.2617 70.9258C48.5033 70.9258 48.7106 70.9303 48.8838 70.9395C49.057 70.9486 49.2324 70.9622 49.4102 70.9805V70.7275C49.4102 70.3949 49.2803 70.1465 49.0205 69.9824C48.7653 69.8184 48.4281 69.7363 48.0088 69.7363C47.626 69.7363 47.2363 69.791 46.8398 69.9004C46.4434 70.0052 46.0674 70.1602 45.7119 70.3652L45.1377 69.2578C45.557 69.0163 46.0059 68.8271 46.4844 68.6904C46.9674 68.5492 47.4756 68.4785 48.0088 68.4785C48.3551 68.4785 48.6947 68.5173 49.0273 68.5947C49.3646 68.6722 49.6654 68.7998 49.9297 68.9775C50.1986 69.1553 50.4128 69.3877 50.5723 69.6748C50.7318 69.9574 50.8115 70.3083 50.8115 70.7275V75H49.4102V74.0635C49.1868 74.4098 48.8564 74.6787 48.4189 74.8701C47.986 75.0615 47.5189 75.1572 47.0176 75.1572C46.7077 75.1572 46.4137 75.1139 46.1357 75.0273C45.8623 74.9453 45.6253 74.82 45.4248 74.6514C45.2243 74.4827 45.0625 74.2754 44.9395 74.0293C44.821 73.7786 44.7617 73.4915 44.7617 73.168ZM47.3799 73.8926C47.6579 73.8926 47.9176 73.8584 48.1592 73.79C48.4053 73.7171 48.6217 73.6191 48.8086 73.4961C48.9954 73.3685 49.1413 73.2158 49.2461 73.0381C49.3555 72.8604 49.4102 72.6644 49.4102 72.4502V72.2109C49.1868 72.1745 48.9772 72.154 48.7812 72.1494C48.5853 72.1449 48.4121 72.1426 48.2617 72.1426C47.569 72.1426 47.0449 72.2337 46.6895 72.416C46.3385 72.5983 46.1631 72.8239 46.1631 73.0928C46.1631 73.626 46.5687 73.8926 47.3799 73.8926Z" fill="white"/>
<path d="M58.6455 70.1396C58.4769 70.0576 58.3037 69.9961 58.126 69.9551C57.9528 69.9095 57.7523 69.8867 57.5244 69.8867C57.21 69.8867 56.9137 69.9346 56.6357 70.0303C56.3623 70.1214 56.1253 70.2604 55.9248 70.4473C55.7243 70.6341 55.5671 70.8688 55.4531 71.1514C55.3438 71.4294 55.2891 71.7598 55.2891 72.1426V73.7285H56.7178V75H52.4316V73.7285H53.874V69.9072H52.4316V68.6289H55.2891V70.2285C55.5215 69.5905 55.8633 69.1393 56.3145 68.875C56.7702 68.6107 57.3102 68.4785 57.9346 68.4785C58.1305 68.4785 58.3356 68.499 58.5498 68.54C58.764 68.5811 58.9736 68.654 59.1787 68.7588L58.6455 70.1396Z" fill="white"/>
</svg>
