<svg width="40" height="40" viewBox="0 0 40 40" fill="none" xmlns="http://www.w3.org/2000/svg">
<path d="M20 0C19.8188 0 19.6382 0.0600489 19.4841 0.181923L0.317722 15.8089C-0.0406052 16.1049 -0.107204 16.6517 0.176124 17.0348C0.459453 17.4091 0.982944 17.4787 1.3496 17.1827L2.5003 16.2442V39.1295C2.5003 39.6083 2.87529 40 3.33362 40H15.0001V24.3305H24.9999V40H36.6664C37.1247 40 37.4997 39.6083 37.4997 39.1295V16.2442L38.6504 17.1827C38.8087 17.3046 38.983 17.3663 39.1663 17.3663C39.4163 17.3663 39.6572 17.2524 39.8239 17.0348C40.1072 16.6517 40.0406 16.1049 39.6823 15.8089L20.5159 0.181923C20.3618 0.0600489 20.1812 0 20 0ZM28.3332 3.4379V4.35263L33.3331 8.42643V3.4379H28.3332Z" fill="white"/>
</svg>
