<svg width="65" height="77" viewBox="0 0 65 77" fill="none" xmlns="http://www.w3.org/2000/svg">
<path fill-rule="evenodd" clip-rule="evenodd" d="M33 34C39.6274 34 45 28.6274 45 22C45 15.3726 39.6274 10 33 10C26.3726 10 21 15.3726 21 22C21 28.6274 26.3726 34 33 34ZM33 30C37.4182 30 41 26.4182 41 22C41 17.5817 37.4182 14 33 14C28.5817 14 25 17.5817 25 22C25 26.4182 28.5817 30 33 30Z" fill="white"/>
<path d="M45 8C43.8954 8 43 8.89544 43 10C43 11.1046 43.8954 12 45 12C46.1046 12 47 11.1046 47 10C47 8.89544 46.1046 8 45 8Z" fill="white"/>
<path fill-rule="evenodd" clip-rule="evenodd" d="M12.3079 6.55212C11 9.11906 11 12.4794 11 19.2V24.8C11 31.5206 11 34.881 12.3079 37.4478C13.4584 39.7058 15.2942 41.5416 17.5521 42.692C20.1191 44 23.4794 44 30.2 44H35.8C42.5206 44 45.881 44 48.4478 42.692C50.7058 41.5416 52.5416 39.7058 53.692 37.4478C55 34.881 55 31.5206 55 24.8V19.2C55 12.4794 55 9.11906 53.692 6.55212C52.5416 4.29416 50.7058 2.4584 48.4478 1.30792C45.881 0 42.5206 0 35.8 0H30.2C23.4794 0 20.1191 0 17.5521 1.30792C15.2942 2.4584 13.4584 4.29416 12.3079 6.55212ZM35.8 4H30.2C26.7737 4 24.4445 4.00312 22.6442 4.1502C20.8905 4.29348 19.9937 4.55318 19.3681 4.87194C17.8628 5.63894 16.6389 6.86278 15.8719 8.36808C15.5532 8.99368 15.2935 9.89048 15.1502 11.6442C15.0031 13.4445 15 15.7737 15 19.2V24.8C15 28.2264 15.0031 30.5554 15.1502 32.3558C15.2935 34.1096 15.5532 35.0064 15.8719 35.632C16.6389 37.1372 17.8628 38.361 19.3681 39.128C19.9937 39.4468 20.8905 39.7066 22.6442 39.8498C24.4445 39.9968 26.7737 40 30.2 40H35.8C39.2264 40 41.5554 39.9968 43.3558 39.8498C45.1096 39.7066 46.0064 39.4468 46.632 39.128C48.1372 38.361 49.361 37.1372 50.128 35.632C50.4468 35.0064 50.7066 34.1096 50.8498 32.3558C50.9968 30.5554 51 28.2264 51 24.8V19.2C51 15.7737 50.9968 13.4445 50.8498 11.6442C50.7066 9.89048 50.4468 8.99368 50.128 8.36808C49.361 6.86278 48.1372 5.63894 46.632 4.87194C46.0064 4.55318 45.1096 4.29348 43.3558 4.1502C41.5554 4.00312 39.2264 4 35.8 4Z" fill="white"/>
<path d="M3.44462 73.2404C3.44462 73.3984 3.43084 73.5587 3.40329 73.7213C3.37803 73.8839 3.3321 74.0314 3.2655 74.1638C3.2012 74.2938 3.11394 74.4007 3.00371 74.4843C2.89348 74.5679 2.7534 74.6098 2.58347 74.6098C2.52146 74.6098 2.45946 74.5981 2.39746 74.5749C2.33775 74.5494 2.28378 74.5145 2.23556 74.4704C2.18733 74.4239 2.1483 74.3693 2.11844 74.3066C2.08859 74.2439 2.07366 74.1754 2.07366 74.101V74.0662C2.05299 74.1429 2.02314 74.2149 1.9841 74.2822C1.94736 74.3473 1.90258 74.4042 1.84976 74.453C1.79694 74.5017 1.73839 74.5401 1.67409 74.5679C1.60979 74.5958 1.54089 74.6098 1.46741 74.6098C1.32733 74.6098 1.20906 74.5761 1.11261 74.5087C1.01846 74.4413 0.942678 74.3519 0.885268 74.2404C0.827857 74.1289 0.786522 74.0023 0.761261 73.8606C0.736001 73.7189 0.72337 73.5738 0.72337 73.4251C0.72337 73.2532 0.741742 73.0894 0.778484 72.9338C0.817523 72.7758 0.873786 72.6376 0.947271 72.5192C1.02305 72.3984 1.11491 72.3031 1.22284 72.2335C1.33077 72.1614 1.45478 72.1254 1.59486 72.1254C1.6362 72.1254 1.67868 72.1324 1.72231 72.1463C1.76594 72.1603 1.80728 72.1823 1.84632 72.2125C1.88536 72.2404 1.9198 72.2764 1.94966 72.3206C1.98181 72.3647 2.00592 72.4158 2.02199 72.4739V72.1916H2.57658V73.9164C2.57658 73.9907 2.58806 74.0441 2.61102 74.0767C2.63628 74.1092 2.66843 74.1254 2.70747 74.1254C2.75799 74.1254 2.80048 74.1022 2.83492 74.0557C2.87167 74.0093 2.90152 73.9466 2.92448 73.8676C2.94745 73.7863 2.96352 73.6922 2.97271 73.5854C2.98419 73.4762 2.98993 73.3612 2.98993 73.2404C2.98993 72.9965 2.96697 72.7642 2.92104 72.5436C2.87511 72.3229 2.80163 72.1289 2.70058 71.9617C2.60184 71.7944 2.47094 71.662 2.3079 71.5645C2.14715 71.4646 1.95195 71.4146 1.72231 71.4146C1.49037 71.4146 1.29288 71.4657 1.12984 71.5679C0.969087 71.6678 0.838191 71.8049 0.737149 71.9791C0.638403 72.1533 0.566066 72.3589 0.520138 72.5958C0.476506 72.8304 0.45469 73.0836 0.45469 73.3554C0.45469 73.6225 0.476506 73.8734 0.520138 74.108C0.566066 74.3426 0.638403 74.547 0.737149 74.7213C0.838191 74.8955 0.969087 75.0337 1.12984 75.1359C1.29288 75.2358 1.49037 75.2857 1.72231 75.2857C1.91062 75.2857 2.07825 75.252 2.22523 75.1847C2.37449 75.1173 2.51113 75.0267 2.63514 74.9129L2.83837 75.2544C2.54443 75.554 2.17241 75.7038 1.72231 75.7038C1.51104 75.7038 1.32159 75.6748 1.15395 75.6167C0.988606 75.5563 0.841636 75.4727 0.713037 75.3659C0.586734 75.259 0.477654 75.1324 0.385798 74.9861C0.296237 74.8397 0.222752 74.6794 0.165342 74.5052C0.107931 74.331 0.066596 74.1463 0.0413355 73.9512C0.0137785 73.7561 0 73.5575 0 73.3554C0 73.1487 0.0137785 72.9477 0.0413355 72.7526C0.0688924 72.5552 0.111376 72.3693 0.168786 72.1951C0.226197 72.0209 0.299682 71.8606 0.389242 71.7143C0.481099 71.5679 0.591327 71.4425 0.719926 71.338C0.848525 71.2311 0.995495 71.1487 1.16084 71.0906C1.32618 71.0302 1.51334 71 1.72231 71C1.92899 71 2.115 71.0302 2.28034 71.0906C2.44798 71.1487 2.59495 71.23 2.72125 71.3345C2.84985 71.439 2.95893 71.5621 3.04849 71.7038C3.14035 71.8455 3.21498 72 3.27239 72.1672C3.3321 72.3322 3.37573 72.5064 3.40329 72.6899C3.43084 72.8711 3.44462 73.0546 3.44462 73.2404ZM2.02199 72.8502C1.98066 72.7619 1.93014 72.6992 1.87043 72.662C1.81302 72.6249 1.75561 72.6063 1.6982 72.6063C1.62931 72.6063 1.5696 72.6272 1.51908 72.669C1.46856 72.7108 1.42607 72.7689 1.39163 72.8432C1.35948 72.9152 1.33536 73.0012 1.31929 73.101C1.30551 73.2009 1.29862 73.3078 1.29862 73.4216C1.29862 73.547 1.30551 73.6527 1.31929 73.7387C1.33536 73.8223 1.35718 73.8897 1.38474 73.9408C1.41459 73.9919 1.45019 74.0279 1.49152 74.0488C1.53286 74.0697 1.57993 74.0801 1.63275 74.0801C1.69016 74.0801 1.74298 74.0604 1.7912 74.0209C1.83943 73.9791 1.88076 73.9257 1.91521 73.8606C1.94966 73.7956 1.97606 73.7236 1.99444 73.6446C2.01281 73.5633 2.02199 73.482 2.02199 73.4007V72.8502Z" fill="white"/>
<path d="M7.03047 75.1603C6.82379 75.3693 6.60564 75.5122 6.37599 75.5889C6.14865 75.6655 5.90178 75.7038 5.6354 75.7038C5.36672 75.7038 5.12215 75.6632 4.9017 75.5819C4.68354 75.5006 4.49753 75.3868 4.34367 75.2404C4.1921 75.0918 4.07499 74.9129 3.99232 74.7038C3.91194 74.4948 3.87175 74.2613 3.87175 74.0035C3.87175 73.7573 3.91194 73.5296 3.99232 73.3206C4.07499 73.1092 4.18521 72.9292 4.323 72.7805C4.46308 72.6295 4.62727 72.5122 4.81558 72.4286C5.00389 72.3426 5.20367 72.2997 5.41494 72.2997C5.6354 72.2997 5.82715 72.3461 5.9902 72.439C6.15324 72.5319 6.27151 72.6678 6.34499 72.8467V72.3763H6.98225V73.8885H6.34499C6.34499 73.6028 6.26691 73.3751 6.11076 73.2056C5.9569 73.0337 5.75596 72.9477 5.50795 72.9477C5.4092 72.9477 5.30472 72.9686 5.19449 73.0105C5.08656 73.0499 4.98666 73.1127 4.89481 73.1986C4.80525 73.2846 4.73061 73.3937 4.67091 73.5261C4.6112 73.6585 4.58135 73.8177 4.58135 74.0035C4.58135 74.1847 4.61005 74.3415 4.66746 74.4739C4.72487 74.604 4.79951 74.712 4.89136 74.7979C4.98552 74.8815 5.09574 74.9454 5.22205 74.9895C5.35064 75.0314 5.48269 75.0523 5.61818 75.0523C5.85011 75.0523 6.05105 75.0163 6.22099 74.9443C6.39322 74.8699 6.54134 74.7724 6.66534 74.6516L7.03047 75.1603Z" fill="white"/>
<path d="M10.8333 75.6237H10.1203V73.6202C10.1203 73.367 10.0732 73.1916 9.97907 73.0941C9.88491 72.9965 9.74828 72.9477 9.56916 72.9477C9.30507 72.9477 9.08921 73.0557 8.92157 73.2718C8.75623 73.4878 8.67356 73.7863 8.67356 74.1672V75.6237H7.96052V71.0767H8.67356V73.1916C8.74475 72.9106 8.87679 72.6922 9.06969 72.5366C9.26259 72.3786 9.50027 72.2997 9.78272 72.2997C10.1111 72.2997 10.3683 72.4077 10.5543 72.6237C10.7403 72.8397 10.8333 73.1719 10.8333 73.6202V75.6237Z" fill="white"/>
<path d="M11.629 74.6899C11.629 74.4994 11.6796 74.3333 11.7806 74.1916C11.8816 74.0476 12.0137 73.928 12.1767 73.8328C12.3421 73.7375 12.5304 73.6667 12.7417 73.6202C12.9552 73.5714 13.1722 73.547 13.3927 73.547C13.5144 73.547 13.6189 73.5494 13.7061 73.554C13.7934 73.5587 13.8818 73.5656 13.9714 73.5749V73.446C13.9714 73.2764 13.9059 73.1498 13.775 73.0662C13.6464 72.9826 13.4765 72.9408 13.2652 72.9408C13.0723 72.9408 12.876 72.9686 12.6762 73.0244C12.4764 73.0778 12.287 73.1568 12.1078 73.2613L11.8185 72.6969C12.0298 72.5737 12.256 72.4774 12.4971 72.4077C12.7405 72.3357 12.9966 72.2997 13.2652 72.2997C13.4398 72.2997 13.6108 72.3194 13.7785 72.3589C13.9484 72.3984 14.1 72.4634 14.2332 72.554C14.3687 72.6446 14.4766 72.7631 14.557 72.9094C14.6373 73.0534 14.6775 73.2323 14.6775 73.446V75.6237H13.9714V75.1463C13.8589 75.3229 13.6924 75.4599 13.4719 75.5575C13.2538 75.655 13.0184 75.7038 12.7658 75.7038C12.6096 75.7038 12.4615 75.6818 12.3214 75.6376C12.1836 75.5958 12.0642 75.5319 11.9632 75.446C11.8621 75.36 11.7806 75.2544 11.7186 75.1289C11.6589 75.0012 11.629 74.8548 11.629 74.6899ZM12.9483 75.0592C13.0884 75.0592 13.2193 75.0418 13.341 75.007C13.465 74.9698 13.5741 74.9199 13.6683 74.8571C13.7624 74.7921 13.8359 74.7143 13.8887 74.6237C13.9438 74.5331 13.9714 74.4332 13.9714 74.324V74.2021C13.8589 74.1835 13.7532 74.1731 13.6545 74.1707C13.5557 74.1684 13.4685 74.1672 13.3927 74.1672C13.0436 74.1672 12.7795 74.2137 12.6004 74.3066C12.4236 74.3995 12.3352 74.5145 12.3352 74.6516C12.3352 74.9233 12.5396 75.0592 12.9483 75.0592Z" fill="white"/>
<path d="M18.6251 73.1463C18.5401 73.1045 18.4528 73.0732 18.3633 73.0523C18.276 73.029 18.175 73.0174 18.0601 73.0174C17.9017 73.0174 17.7524 73.0418 17.6123 73.0906C17.4746 73.137 17.3551 73.2079 17.2541 73.3031C17.1531 73.3984 17.0738 73.518 17.0164 73.662C16.9613 73.8037 16.9338 73.9721 16.9338 74.1672V74.9756H17.6537V75.6237H15.4939V74.9756H16.2207V73.0279H15.4939V72.3763H16.9338V73.1916C17.0509 72.8664 17.2231 72.6365 17.4505 72.5017C17.6801 72.367 17.9522 72.2997 18.2668 72.2997C18.3656 72.2997 18.4689 72.3101 18.5768 72.331C18.6848 72.3519 18.7904 72.3891 18.8937 72.4425L18.6251 73.1463Z" fill="white"/>
<path d="M21.3842 71.9547H20.5162V71.0767H21.3842V71.9547ZM22.0387 75.6237H19.8824V74.9756H20.5919V73.0279H19.8824V72.3763H21.305V74.9756H22.0387V75.6237Z" fill="white"/>
<path d="M26.3204 74.6516C26.3204 74.8629 26.2733 75.0348 26.1791 75.1672C26.085 75.2996 25.9633 75.4065 25.814 75.4878C25.667 75.5691 25.5017 75.6249 25.318 75.6551C25.1365 75.6876 24.9586 75.7038 24.784 75.7038C24.4924 75.7038 24.2019 75.6609 23.9126 75.5749C23.6232 75.489 23.3729 75.3763 23.1616 75.2369L23.4579 74.6446C23.7105 74.7933 23.9413 74.899 24.1502 74.9617C24.3615 75.0221 24.5728 75.0523 24.784 75.0523C25.0711 75.0523 25.2801 75.0221 25.411 74.9617C25.5419 74.899 25.6073 74.813 25.6073 74.7038C25.6073 74.6504 25.5889 74.6063 25.5522 74.5714C25.5155 74.5366 25.4546 74.5052 25.3696 74.4773C25.2847 74.4472 25.1721 74.4181 25.0321 74.3902C24.8943 74.36 24.722 74.3287 24.5154 74.2962C24.35 74.2683 24.1927 74.2346 24.0435 74.1951C23.8965 74.1533 23.7667 74.0952 23.6542 74.0209C23.5417 73.9466 23.451 73.8525 23.3821 73.7387C23.3155 73.6249 23.2822 73.482 23.2822 73.3101C23.2822 73.1359 23.3258 72.9849 23.4131 72.8571C23.5026 72.7271 23.6186 72.6202 23.761 72.5366C23.9057 72.453 24.0676 72.3926 24.2467 72.3554C24.4258 72.3182 24.6049 72.2997 24.784 72.2997C25.0367 72.2997 25.2812 72.3333 25.5178 72.4007C25.7566 72.4657 25.9656 72.5598 26.1447 72.6829L25.8622 73.2404C25.6831 73.1266 25.5086 73.0499 25.3386 73.0105C25.171 72.9686 24.9861 72.9477 24.784 72.9477C24.6991 72.9477 24.6107 72.9524 24.5188 72.9617C24.427 72.971 24.342 72.9895 24.2639 73.0174C24.1858 73.043 24.1204 73.079 24.0676 73.1254C24.017 73.1696 23.9918 73.2242 23.9918 73.2892C23.9918 73.3751 24.0664 73.446 24.2157 73.5017C24.3673 73.5552 24.6244 73.6086 24.9873 73.662C25.1848 73.6899 25.365 73.7259 25.5281 73.77C25.6911 73.8118 25.8312 73.8699 25.9483 73.9443C26.0654 74.0163 26.1562 74.1103 26.2205 74.2265C26.2871 74.3403 26.3204 74.482 26.3204 74.6516Z" fill="white"/>
<path d="M27.0472 76.2718V75.6237H30.2576V76.2718H27.0472Z" fill="white"/>
<path d="M34.0225 74.6516C34.0225 74.8629 33.9754 75.0348 33.8813 75.1672C33.7871 75.2996 33.6654 75.4065 33.5162 75.4878C33.3692 75.5691 33.2039 75.6249 33.0201 75.6551C32.8387 75.6876 32.6607 75.7038 32.4862 75.7038C32.1946 75.7038 31.9041 75.6609 31.6147 75.5749C31.3254 75.489 31.0751 75.3763 30.8638 75.2369L31.16 74.6446C31.4126 74.7933 31.6434 74.899 31.8524 74.9617C32.0637 75.0221 32.275 75.0523 32.4862 75.0523C32.7733 75.0523 32.9822 75.0221 33.1131 74.9617C33.244 74.899 33.3095 74.813 33.3095 74.7038C33.3095 74.6504 33.2911 74.6063 33.2544 74.5714C33.2176 74.5366 33.1568 74.5052 33.0718 74.4773C32.9868 74.4472 32.8743 74.4181 32.7342 74.3902C32.5964 74.36 32.4242 74.3287 32.2175 74.2962C32.0522 74.2683 31.8949 74.2346 31.7456 74.1951C31.5987 74.1533 31.4689 74.0952 31.3564 74.0209C31.2439 73.9466 31.1532 73.8525 31.0843 73.7387C31.0177 73.6249 30.9844 73.482 30.9844 73.3101C30.9844 73.1359 31.028 72.9849 31.1153 72.8571C31.2048 72.7271 31.3208 72.6202 31.4632 72.5366C31.6078 72.453 31.7697 72.3926 31.9489 72.3554C32.128 72.3182 32.3071 72.2997 32.4862 72.2997C32.7388 72.2997 32.9834 72.3333 33.2199 72.4007C33.4588 72.4657 33.6677 72.5598 33.8468 72.6829L33.5644 73.2404C33.3853 73.1266 33.2107 73.0499 33.0408 73.0105C32.8732 72.9686 32.6883 72.9477 32.4862 72.9477C32.4013 72.9477 32.3128 72.9524 32.221 72.9617C32.1291 72.971 32.0442 72.9895 31.9661 73.0174C31.888 73.043 31.8226 73.079 31.7697 73.1254C31.7192 73.1696 31.694 73.2242 31.694 73.2892C31.694 73.3751 31.7686 73.446 31.9179 73.5017C32.0694 73.5552 32.3266 73.6086 32.6895 73.662C32.8869 73.6899 33.0672 73.7259 33.2303 73.77C33.3933 73.8118 33.5334 73.8699 33.6505 73.9443C33.7676 74.0163 33.8583 74.1103 33.9226 74.2265C33.9892 74.3403 34.0225 74.482 34.0225 74.6516Z" fill="white"/>
<path d="M34.9181 72.3763H35.6312V74.3833C35.6312 74.6341 35.6782 74.8084 35.7724 74.9059C35.8665 75.0035 36.0032 75.0523 36.1823 75.0523C36.4441 75.0523 36.6588 74.9443 36.8264 74.7282C36.9941 74.5122 37.0779 74.2137 37.0779 73.8328V72.3763H37.7909V75.6237H37.0779V74.8118C37.0067 75.0906 36.8747 75.3089 36.6818 75.4669C36.4889 75.6249 36.2512 75.7038 35.9687 75.7038C35.6403 75.7038 35.3831 75.5958 35.1971 75.3798C35.0111 75.1614 34.9181 74.8293 34.9181 74.3833V72.3763Z" fill="white"/>
<path d="M41.7316 73.1463C41.6466 73.1045 41.5594 73.0732 41.4698 73.0523C41.3825 73.029 41.2815 73.0174 41.1667 73.0174C41.0082 73.0174 40.8589 73.0418 40.7189 73.0906C40.5811 73.137 40.4617 73.2079 40.3606 73.3031C40.2596 73.3984 40.1804 73.518 40.1229 73.662C40.0678 73.8037 40.0403 73.9721 40.0403 74.1672V74.9756H40.7602V75.6237H38.6004V74.9756H39.3272V73.0279H38.6004V72.3763H40.0403V73.1916C40.1574 72.8664 40.3296 72.6365 40.557 72.5017C40.7866 72.367 41.0587 72.2997 41.3733 72.2997C41.4721 72.2997 41.5754 72.3101 41.6834 72.331C41.7913 72.3519 41.8969 72.3891 42.0003 72.4425L41.7316 73.1463Z" fill="white"/>
<path d="M44.4907 71.9547H43.6227V71.0767H44.4907V71.9547ZM45.1452 75.6237H42.9889V74.9756H43.6985V73.0279H42.9889V72.3763H44.4115V74.9756H45.1452V75.6237Z" fill="white"/>
<path d="M47.4875 77C46.9984 77 46.6034 76.8153 46.3026 76.446L46.7263 75.9652C46.8342 76.0952 46.949 76.1916 47.0707 76.2544C47.1925 76.3194 47.3314 76.3519 47.4875 76.3519C47.7287 76.3519 47.9066 76.2846 48.0215 76.1498C48.1363 76.0174 48.1937 75.842 48.1937 75.6237V73.0279H47.4669V72.3763H48.9067V75.6237C48.9067 75.8328 48.8723 76.0221 48.8034 76.1916C48.7345 76.3612 48.638 76.5064 48.514 76.6272C48.39 76.748 48.2408 76.8397 48.0662 76.9024C47.8917 76.9675 47.6988 77 47.4875 77ZM48.9825 71.9547H48.1145V71.0767H48.9825V71.9547Z" fill="white"/>
<path d="M50.1399 74.6899C50.1399 74.4994 50.1904 74.3333 50.2915 74.1916C50.3925 74.0476 50.5246 73.928 50.6876 73.8328C50.8529 73.7375 51.0412 73.6667 51.2525 73.6202C51.4661 73.5714 51.6831 73.547 51.9035 73.547C52.0253 73.547 52.1297 73.5494 52.217 73.554C52.3043 73.5587 52.3927 73.5656 52.4822 73.5749V73.446C52.4822 73.2764 52.4168 73.1498 52.2859 73.0662C52.1573 72.9826 51.9874 72.9408 51.7761 72.9408C51.5832 72.9408 51.3869 72.9686 51.1871 73.0244C50.9873 73.0778 50.7978 73.1568 50.6187 73.2613L50.3294 72.6969C50.5406 72.5737 50.7668 72.4774 51.0079 72.4077C51.2514 72.3357 51.5074 72.2997 51.7761 72.2997C51.9506 72.2997 52.1217 72.3194 52.2893 72.3589C52.4593 72.3984 52.6108 72.4634 52.744 72.554C52.8795 72.6446 52.9875 72.7631 53.0678 72.9094C53.1482 73.0534 53.1884 73.2323 53.1884 73.446V75.6237H52.4822V75.1463C52.3697 75.3229 52.2032 75.4599 51.9828 75.5575C51.7646 75.655 51.5292 75.7038 51.2766 75.7038C51.1205 75.7038 50.9724 75.6818 50.8323 75.6376C50.6945 75.5958 50.5751 75.5319 50.474 75.446C50.373 75.36 50.2915 75.2544 50.2295 75.1289C50.1698 75.0012 50.1399 74.8548 50.1399 74.6899ZM51.4592 75.0592C51.5993 75.0592 51.7302 75.0418 51.8519 75.007C51.9759 74.9698 52.085 74.9199 52.1791 74.8571C52.2733 74.7921 52.3468 74.7143 52.3996 74.6237C52.4547 74.5331 52.4822 74.4332 52.4822 74.324V74.2021C52.3697 74.1835 52.2641 74.1731 52.1653 74.1707C52.0666 74.1684 51.9793 74.1672 51.9035 74.1672C51.5545 74.1672 51.2904 74.2137 51.1113 74.3066C50.9345 74.3995 50.8461 74.5145 50.8461 74.6516C50.8461 74.9233 51.0504 75.0592 51.4592 75.0592Z" fill="white"/>
<path d="M57.2083 75.6237H56.2851L55.2104 74.3101L54.8866 74.6446V75.6237H54.1736V71.0767H54.8866V73.7526L56.1714 72.3763H57.1497L55.6685 73.8676L57.2083 75.6237Z" fill="white"/>
<path d="M61.0594 75.6237H60.1362L59.0615 74.3101L58.7377 74.6446V75.6237H58.0246V71.0767H58.7377V73.7526L60.0225 72.3763H61.0008L59.5196 73.8676L61.0594 75.6237Z" fill="white"/>
<path d="M65 74.0035C65 74.2567 64.9598 74.4866 64.8794 74.6934C64.8014 74.9001 64.6877 75.079 64.5384 75.23C64.3915 75.3786 64.2146 75.4948 64.0079 75.5784C63.8013 75.662 63.5705 75.7038 63.3156 75.7038C63.0653 75.7038 62.8368 75.662 62.6301 75.5784C62.4234 75.4948 62.2455 75.3786 62.0962 75.23C61.9492 75.079 61.8355 74.9001 61.7552 74.6934C61.6771 74.4866 61.6381 74.2567 61.6381 74.0035C61.6381 73.7573 61.6771 73.5296 61.7552 73.3206C61.8355 73.1092 61.9492 72.928 62.0962 72.777C62.2455 72.6237 62.4234 72.5064 62.6301 72.4251C62.8368 72.3415 63.0653 72.2997 63.3156 72.2997C63.5705 72.2997 63.8013 72.3415 64.0079 72.4251C64.2146 72.5064 64.3915 72.6237 64.5384 72.777C64.6877 72.928 64.8014 73.1092 64.8794 73.3206C64.9598 73.5296 65 73.7573 65 74.0035ZM64.2904 74.0035C64.2904 73.8571 64.2674 73.7189 64.2215 73.5889C64.1779 73.4564 64.1136 73.3438 64.0286 73.2509C63.9437 73.158 63.8403 73.0848 63.7186 73.0314C63.5992 72.9756 63.4648 72.9477 63.3156 72.9477C63.164 72.9477 63.0285 72.9756 62.9091 73.0314C62.7897 73.0848 62.6887 73.158 62.606 73.2509C62.5233 73.3438 62.459 73.4564 62.4131 73.5889C62.3695 73.7189 62.3476 73.8571 62.3476 74.0035C62.3476 74.1568 62.3695 74.2962 62.4131 74.4216C62.459 74.547 62.5233 74.6574 62.606 74.7526C62.6887 74.8479 62.7897 74.9222 62.9091 74.9756C63.0285 75.0267 63.164 75.0523 63.3156 75.0523C63.4648 75.0523 63.5992 75.0267 63.7186 74.9756C63.8403 74.9222 63.9437 74.8479 64.0286 74.7526C64.1136 74.6574 64.1779 74.547 64.2215 74.4216C64.2674 74.2962 64.2904 74.1568 64.2904 74.0035Z" fill="white"/>
</svg>
