<svg width="21" height="21" viewBox="0 0 21 21" fill="none" xmlns="http://www.w3.org/2000/svg">
<path d="M10.1055 6.63459C8.19151 6.63459 6.63425 8.19151 6.63425 10.1055C6.63425 12.0198 8.19151 13.5767 10.1055 13.5767C12.0195 13.5767 13.5767 12.0198 13.5767 10.1055C13.5767 8.19151 12.0195 6.63459 10.1055 6.63459ZM10.1055 12.3415C9.81189 12.3415 9.52118 12.2837 9.24993 12.1713C8.97869 12.059 8.73223 11.8943 8.52463 11.6867C8.31703 11.4791 8.15235 11.2326 8.04 10.9614C7.92764 10.6901 7.86981 10.3994 7.86981 10.1058C7.86981 9.81223 7.92764 9.52151 8.04 9.25027C8.15235 8.97902 8.31703 8.73257 8.52463 8.52496C8.73223 8.31736 8.97869 8.15268 9.24993 8.04033C9.52118 7.92798 9.81189 7.87015 10.1055 7.87015C10.6984 7.87015 11.2671 8.10569 11.6863 8.52496C12.1056 8.94423 12.3412 9.51289 12.3412 10.1058C12.3412 10.6988 12.1056 11.2674 11.6863 11.6867C11.2671 12.1059 10.6984 12.3415 10.1055 12.3415Z" fill="white"/>
<path d="M10.1055 0C4.52456 0 0 4.52456 0 10.1055C0 15.6867 4.52456 20.211 10.1055 20.211C15.6864 20.211 20.211 15.6867 20.211 10.1055C20.211 4.52456 15.6864 0 10.1055 0ZM13.2826 18.2734L10.6896 14.4273C10.4961 14.455 10.3009 14.4696 10.1055 14.4711C7.69836 14.4711 5.74025 12.5126 5.74025 10.1055C5.74025 9.90708 5.75844 9.71306 5.78404 9.52173L1.93756 6.92866C2.38055 5.79769 3.05257 4.77052 3.91141 3.91162C4.77026 3.05271 5.79739 2.38063 6.92832 1.93756L9.52139 5.78404C9.71272 5.7581 9.90708 5.74025 10.1051 5.74025C12.5123 5.74025 14.4704 7.69836 14.4704 10.1055C14.4704 10.3039 14.4522 10.4979 14.4266 10.6892L18.2731 13.282C17.8303 14.413 17.1584 15.4403 16.2996 16.2993C15.4408 17.1583 14.4136 17.8304 13.2826 18.2734Z" fill="#EEE8D5"/>
</svg>
