<svg width="66" height="79" viewBox="0 0 66 79" fill="none" xmlns="http://www.w3.org/2000/svg">
<path d="M33 0C37.3512 0 41.6047 1.29028 45.2225 3.70767C48.8404 6.12506 51.6602 9.56099 53.3253 13.581C54.9905 17.6009 55.4261 22.0244 54.5773 26.292C53.7284 30.5596 51.6331 34.4796 48.5563 37.5563C45.4796 40.6331 41.5596 42.7284 37.292 43.5773C33.0244 44.4261 28.6009 43.9905 24.581 42.3253C20.561 40.6602 17.1251 37.8404 14.7077 34.2225C12.2903 30.6047 11 26.3512 11 22C11 16.1652 13.3178 10.5694 17.4436 6.44365C21.5694 2.31785 27.1652 0 33 0ZM43.0687 31.68C43.2415 31.3928 43.3018 31.0519 43.2382 30.7229C43.1746 30.3938 42.9914 30.1 42.724 29.898C42.6111 29.8156 42.4936 29.7397 42.372 29.6707C40.9999 28.8534 39.5445 28.1847 38.0307 27.676C35.2942 26.7801 32.4327 26.3246 29.5533 26.3267C28.578 26.378 27.5953 26.4147 26.62 26.4953C24.8726 26.6504 23.1379 26.9248 21.428 27.3167C21.293 27.3449 21.1606 27.3842 21.032 27.434C20.7383 27.5515 20.4956 27.769 20.3466 28.0481C20.1977 28.3272 20.1521 28.6499 20.218 28.9593C20.2675 29.2721 20.4283 29.5564 20.6709 29.7599C20.9135 29.9634 21.2214 30.0723 21.538 30.0667C21.7556 30.0597 21.9718 30.0302 22.1833 29.9787C24.2708 29.5088 26.3962 29.2265 28.534 29.1353C30.1889 29.0673 31.8465 29.1582 33.484 29.4067C36.1371 29.7951 38.6897 30.6941 41.0007 32.054C41.1188 32.1272 41.2413 32.1933 41.3673 32.252C41.6694 32.3848 42.0096 32.403 42.3241 32.3031C42.6386 32.2032 42.9059 31.9921 43.076 31.7093M45.7673 25.6667C45.9982 25.2797 46.0676 24.8175 45.9606 24.3798C45.8536 23.9421 45.5787 23.5641 45.1953 23.3273L44.9387 23.1733C43.232 22.1645 41.4164 21.3526 39.5267 20.7533C35.8101 19.5617 31.913 19.033 28.0133 19.1913C26.1902 19.2521 24.3764 19.4779 22.594 19.866C21.8607 20.0273 21.1273 20.218 20.438 20.4307C20.1037 20.5361 19.8115 20.7448 19.6033 21.0268C19.3951 21.3088 19.2817 21.6495 19.2793 22C19.2714 22.3442 19.3682 22.6827 19.5567 22.9707C19.7453 23.2588 20.0167 23.4828 20.3353 23.6133C20.7312 23.7555 21.1642 23.7555 21.56 23.6133C24.0337 22.897 26.5967 22.5365 29.172 22.5427C31.1182 22.5442 33.06 22.7258 34.9727 23.0853C37.4137 23.5237 39.7794 24.309 41.998 25.4173C42.482 25.6667 42.9513 25.9453 43.428 26.2093C43.8109 26.4448 44.2712 26.5198 44.7091 26.4183C45.147 26.3167 45.5272 26.0466 45.7673 25.6667ZM46.024 19.4407C46.3351 19.6299 46.6911 19.7327 47.0552 19.7384C47.4193 19.7442 47.7783 19.6526 48.0952 19.4732C48.4121 19.2939 48.6754 19.0332 48.8579 18.718C49.0404 18.4029 49.1355 18.0448 49.1333 17.6807C49.1333 17.534 49.1333 17.3873 49.0747 17.2407C49.0113 16.9539 48.8868 16.6843 48.7096 16.4501C48.5324 16.216 48.3067 16.0229 48.048 15.884C46.5548 15.0204 44.9803 14.3057 43.3473 13.75C39.3583 12.4167 35.1887 11.702 30.9833 11.6307C29.2707 11.5794 27.5565 11.6308 25.85 11.7847C24.2414 11.9199 22.6439 12.1649 21.0687 12.518C20.4307 12.6647 19.8 12.826 19.1767 13.0313C18.7694 13.1697 18.4176 13.4356 18.1732 13.7896C17.9289 14.1435 17.805 14.5668 17.82 14.9967C17.8303 15.4299 17.9778 15.8487 18.2414 16.1927C18.505 16.5367 18.871 16.7881 19.2867 16.9107C19.67 17.0207 20.0766 17.0207 20.46 16.9107C21.098 16.742 21.7433 16.566 22.3887 16.4267C24.1425 16.0617 25.923 15.8386 27.7127 15.7593C29.2759 15.6721 30.8428 15.6721 32.406 15.7593C33.9084 15.8496 35.4044 16.0258 36.8867 16.2873C39.0159 16.6452 41.1024 17.2228 43.1127 18.0107C44.1222 18.4332 45.1022 18.9232 46.046 19.4773" fill="white"/>
<path d="M1.56567 71.5007C1.56567 71.0677 1.21518 70.7167 0.782834 70.7167C0.350487 70.7167 0 71.0677 0 71.5007V72.4994C0 72.9324 0.350487 73.2834 0.782834 73.2834C1.21518 73.2834 1.56567 72.9324 1.56567 72.4994V71.5007Z" fill="white"/>
<path d="M4.46368 70.684C4.46368 70.251 4.11319 69.9 3.68084 69.9C3.2485 69.9 2.89801 70.251 2.89801 70.684V73.316C2.89801 73.749 3.2485 74.1 3.68084 74.1C4.11319 74.1 4.46368 73.749 4.46368 73.316V70.684Z" fill="white"/>
<path d="M7.36169 69.0507C7.36169 68.6177 7.0112 68.2667 6.57886 68.2667C6.14651 68.2667 5.79602 68.6177 5.79602 69.0507V74.9493C5.79602 75.3823 6.14651 75.7333 6.57886 75.7333C7.0112 75.7333 7.36169 75.3823 7.36169 74.9493V69.0507Z" fill="white"/>
<path d="M10.262 71.5007C10.262 71.0677 9.91149 70.7167 9.47914 70.7167C9.0468 70.7167 8.69631 71.0677 8.69631 71.5007V72.4994C8.69631 72.9324 9.0468 73.2834 9.47914 73.2834C9.91149 73.2834 10.262 72.9324 10.262 72.4994V71.5007Z" fill="white"/>
<path d="M13.16 66.6007C13.16 66.1677 12.8095 65.8167 12.3772 65.8167C11.9448 65.8167 11.5943 66.1677 11.5943 66.6007V77.3993C11.5943 77.8323 11.9448 78.1833 12.3772 78.1833C12.8095 78.1833 13.16 77.8323 13.16 77.3993V66.6007Z" fill="white"/>
<path d="M16.058 69.8673C16.058 69.4343 15.7075 69.0833 15.2752 69.0833C14.8428 69.0833 14.4923 69.4343 14.4923 69.8673V74.1327C14.4923 74.5657 14.8428 74.9167 15.2752 74.9167C15.7075 74.9167 16.058 74.5657 16.058 74.1327V69.8673Z" fill="white"/>
<path d="M18.956 69.8673C18.956 69.4343 18.6055 69.0833 18.1732 69.0833C17.7408 69.0833 17.3903 69.4343 17.3903 69.8673V74.1327C17.3903 74.5657 17.7408 74.9167 18.1732 74.9167C18.6055 74.9167 18.956 74.5657 18.956 74.1327V69.8673Z" fill="white"/>
<path d="M21.8563 67.4174C21.8563 66.9844 21.5058 66.6334 21.0735 66.6334C20.6411 66.6334 20.2906 66.9844 20.2906 67.4174V76.5827C20.2906 77.0157 20.6411 77.3667 21.0735 77.3667C21.5058 77.3667 21.8563 77.0157 21.8563 76.5827V67.4174Z" fill="white"/>
<path d="M24.7543 69.8673C24.7543 69.4343 24.4038 69.0833 23.9715 69.0833C23.5391 69.0833 23.1886 69.4343 23.1886 69.8673V74.1327C23.1886 74.5657 23.5391 74.9167 23.9715 74.9167C24.4038 74.9167 24.7543 74.5657 24.7543 74.1327V69.8673Z" fill="white"/>
<path d="M27.6523 66.6007C27.6523 66.1677 27.3018 65.8167 26.8695 65.8167C26.4371 65.8167 26.0867 66.1677 26.0867 66.6007V77.3993C26.0867 77.8323 26.4371 78.1833 26.8695 78.1833C27.3018 78.1833 27.6523 77.8323 27.6523 77.3993V66.6007Z" fill="white"/>
<path d="M30.5503 71.5007C30.5503 71.0677 30.1998 70.7167 29.7675 70.7167C29.3351 70.7167 28.9847 71.0677 28.9847 71.5007V72.4994C28.9847 72.9324 29.3351 73.2834 29.7675 73.2834C30.1998 73.2834 30.5503 72.9324 30.5503 72.4994V71.5007Z" fill="white"/>
<path d="M33.4483 65.784C33.4483 65.351 33.0979 65 32.6655 65C32.2332 65 31.8827 65.351 31.8827 65.784V78.216C31.8827 78.649 32.2332 79 32.6655 79C33.0979 79 33.4483 78.649 33.4483 78.216V65.784Z" fill="white"/>
<path d="M36.3486 69.8673C36.3486 69.4343 35.9981 69.0833 35.5658 69.0833C35.1334 69.0833 34.783 69.4343 34.783 69.8673V74.1327C34.783 74.5657 35.1334 74.9167 35.5658 74.9167C35.9981 74.9167 36.3486 74.5657 36.3486 74.1327V69.8673Z" fill="white"/>
<path d="M39.2466 66.6007C39.2466 66.1677 38.8962 65.8167 38.4638 65.8167C38.0315 65.8167 37.681 66.1677 37.681 66.6007V77.3993C37.681 77.8323 38.0315 78.1833 38.4638 78.1833C38.8962 78.1833 39.2466 77.8323 39.2466 77.3993V66.6007Z" fill="white"/>
<path d="M42.1446 69.0507C42.1446 68.6177 41.7942 68.2667 41.3618 68.2667C40.9295 68.2667 40.579 68.6177 40.579 69.0507V74.9493C40.579 75.3823 40.9295 75.7333 41.3618 75.7333C41.7942 75.7333 42.1446 75.3823 42.1446 74.9493V69.0507Z" fill="white"/>
<path d="M45.0427 67.4174C45.0427 66.9844 44.6922 66.6334 44.2598 66.6334C43.8275 66.6334 43.477 66.9844 43.477 67.4174V76.5827C43.477 77.0157 43.8275 77.3667 44.2598 77.3667C44.6922 77.3667 45.0427 77.0157 45.0427 76.5827V67.4174Z" fill="white"/>
<path d="M47.943 68.234C47.943 67.801 47.5925 67.45 47.1602 67.45C46.7278 67.45 46.3774 67.801 46.3774 68.234V75.766C46.3774 76.199 46.7278 76.55 47.1602 76.55C47.5925 76.55 47.943 76.199 47.943 75.766V68.234Z" fill="white"/>
<path d="M50.841 69.8673C50.841 69.4343 50.4905 69.0833 50.0581 69.0833C49.6258 69.0833 49.2753 69.4343 49.2753 69.8673V74.1327C49.2753 74.5657 49.6258 74.9167 50.0581 74.9167C50.4905 74.9167 50.841 74.5657 50.841 74.1327V69.8673Z" fill="white"/>
<path d="M53.739 65.784C53.739 65.351 53.3885 65 52.9561 65C52.5238 65 52.1733 65.351 52.1733 65.784V78.216C52.1733 78.649 52.5238 79 52.9561 79C53.3885 79 53.739 78.649 53.739 78.216V65.784Z" fill="white"/>
<path d="M56.637 71.5007C56.637 71.0677 56.2865 70.7167 55.8541 70.7167C55.4218 70.7167 55.0713 71.0677 55.0713 71.5007V72.4994C55.0713 72.9324 55.4218 73.2834 55.8541 73.2834C56.2865 73.2834 56.637 72.9324 56.637 72.4994V71.5007Z" fill="white"/>
<path d="M59.535 67.4174C59.535 66.9844 59.1845 66.6334 58.7522 66.6334C58.3198 66.6334 57.9693 66.9844 57.9693 67.4174V76.5827C57.9693 77.0157 58.3198 77.3667 58.7522 77.3667C59.1845 77.3667 59.535 77.0157 59.535 76.5827V67.4174Z" fill="white"/>
<path d="M62.4354 70.684C62.4354 70.251 62.0849 69.9 61.6525 69.9C61.2202 69.9 60.8697 70.251 60.8697 70.684V73.316C60.8697 73.749 61.2202 74.1 61.6525 74.1C62.0849 74.1 62.4354 73.749 62.4354 73.316V70.684Z" fill="white"/>
<path d="M65.3334 71.5007C65.3334 71.0677 64.9829 70.7167 64.5505 70.7167C64.1182 70.7167 63.7677 71.0677 63.7677 71.5007V72.4994C63.7677 72.9324 64.1182 73.2834 64.5505 73.2834C64.9829 73.2834 65.3334 72.9324 65.3334 72.4994V71.5007Z" fill="white"/>
</svg>
