<svg width="76" height="82" viewBox="0 0 76 82" fill="none" xmlns="http://www.w3.org/2000/svg">
<mask id="path-1-inside-1_42_41" fill="white">
<path d="M6.83594 74.3242C6.83594 74.6341 6.80859 74.9486 6.75391 75.2676C6.70378 75.5866 6.61263 75.876 6.48047 76.1357C6.35286 76.391 6.17969 76.6006 5.96094 76.7646C5.74219 76.9287 5.46419 77.0107 5.12695 77.0107C5.00391 77.0107 4.88086 76.988 4.75781 76.9424C4.63932 76.8923 4.53223 76.8239 4.43652 76.7373C4.34082 76.6462 4.26335 76.5391 4.2041 76.416C4.14486 76.293 4.11523 76.1585 4.11523 76.0127V75.9443C4.07422 76.0947 4.01497 76.236 3.9375 76.3682C3.86458 76.4958 3.77572 76.6074 3.6709 76.7031C3.56608 76.7988 3.44987 76.874 3.32227 76.9287C3.19466 76.9834 3.05794 77.0107 2.91211 77.0107C2.63411 77.0107 2.39941 76.9447 2.20801 76.8125C2.02116 76.6803 1.87077 76.5049 1.75684 76.2861C1.6429 76.0674 1.56087 75.819 1.51074 75.541C1.46061 75.263 1.43555 74.9782 1.43555 74.6865C1.43555 74.3493 1.47201 74.028 1.54492 73.7227C1.6224 73.4128 1.73405 73.1416 1.87988 72.9092C2.03027 72.6722 2.21257 72.4854 2.42676 72.3486C2.64095 72.2074 2.88704 72.1367 3.16504 72.1367C3.24707 72.1367 3.33138 72.1504 3.41797 72.1777C3.50456 72.2051 3.58659 72.2484 3.66406 72.3076C3.74154 72.3623 3.8099 72.4329 3.86914 72.5195C3.93294 72.6061 3.98079 72.7064 4.0127 72.8203V72.2666H5.11328V75.6504C5.11328 75.7962 5.13607 75.901 5.18164 75.9648C5.23177 76.0286 5.29557 76.0605 5.37305 76.0605C5.47331 76.0605 5.55762 76.015 5.62598 75.9238C5.69889 75.8327 5.75814 75.7096 5.80371 75.5547C5.84928 75.3952 5.88118 75.2106 5.89941 75.001C5.9222 74.7868 5.93359 74.5612 5.93359 74.3242C5.93359 73.8457 5.88802 73.39 5.79688 72.957C5.70573 72.5241 5.5599 72.1436 5.35938 71.8154C5.16341 71.4873 4.90365 71.2275 4.58008 71.0361C4.26107 70.8402 3.8737 70.7422 3.41797 70.7422C2.95768 70.7422 2.56576 70.8424 2.24219 71.043C1.92318 71.2389 1.66341 71.5078 1.46289 71.8496C1.26693 72.1914 1.12337 72.5947 1.03223 73.0596C0.945638 73.5199 0.902344 74.0166 0.902344 74.5498C0.902344 75.0739 0.945638 75.5661 1.03223 76.0264C1.12337 76.4867 1.26693 76.8877 1.46289 77.2295C1.66341 77.5713 1.92318 77.8424 2.24219 78.043C2.56576 78.2389 2.95768 78.3369 3.41797 78.3369C3.79167 78.3369 4.12435 78.2708 4.41602 78.1387C4.71224 78.0065 4.9834 77.8288 5.22949 77.6055L5.63281 78.2754C5.04948 78.8633 4.3112 79.1572 3.41797 79.1572C2.9987 79.1572 2.62272 79.1003 2.29004 78.9863C1.96191 78.8678 1.67025 78.7038 1.41504 78.4941C1.16439 78.2845 0.947917 78.0361 0.765625 77.749C0.587891 77.4619 0.442057 77.1475 0.328125 76.8057C0.214193 76.4639 0.132161 76.1016 0.0820312 75.7188C0.0273438 75.3359 0 74.9463 0 74.5498C0 74.1442 0.0273438 73.75 0.0820312 73.3672C0.136719 72.9798 0.221029 72.6152 0.334961 72.2734C0.448893 71.9316 0.594727 71.6172 0.772461 71.3301C0.954753 71.043 1.1735 70.7969 1.42871 70.5918C1.68392 70.3822 1.97559 70.2204 2.30371 70.1064C2.63184 69.988 3.00326 69.9287 3.41797 69.9287C3.82812 69.9287 4.19727 69.988 4.52539 70.1064C4.85807 70.2204 5.14974 70.3799 5.40039 70.585C5.6556 70.79 5.87207 71.0316 6.0498 71.3096C6.2321 71.5876 6.38021 71.8906 6.49414 72.2188C6.61263 72.5423 6.69922 72.8841 6.75391 73.2441C6.80859 73.5996 6.83594 73.9596 6.83594 74.3242ZM4.0127 73.5586C3.93066 73.3854 3.8304 73.2624 3.71191 73.1895C3.59798 73.1165 3.48405 73.0801 3.37012 73.0801C3.2334 73.0801 3.11491 73.1211 3.01465 73.2031C2.91439 73.2852 2.83008 73.3991 2.76172 73.5449C2.69792 73.6862 2.65007 73.8548 2.61816 74.0508C2.59082 74.2467 2.57715 74.4564 2.57715 74.6797C2.57715 74.9258 2.59082 75.1331 2.61816 75.3018C2.65007 75.4658 2.69336 75.598 2.74805 75.6982C2.80729 75.7985 2.87793 75.8691 2.95996 75.9102C3.04199 75.9512 3.13542 75.9717 3.24023 75.9717C3.35417 75.9717 3.45898 75.9329 3.55469 75.8555C3.65039 75.7734 3.73242 75.6686 3.80078 75.541C3.86914 75.4134 3.92155 75.2721 3.95801 75.1172C3.99447 74.9577 4.0127 74.7982 4.0127 74.6387V73.5586Z"/>
<path d="M14.2598 76.9697C14.1868 77.6396 13.9225 78.1729 13.4668 78.5693C13.0156 78.9613 12.4505 79.1572 11.7715 79.1572C11.3978 79.1572 11.056 79.0957 10.7461 78.9727C10.4362 78.8496 10.1719 78.6787 9.95312 78.46C9.73438 78.2412 9.56348 77.9792 9.44043 77.6738C9.32194 77.3639 9.2627 77.0267 9.2627 76.6621V73.9072H7.82031V72.6289H9.2627V70.0791H10.6777V72.6289H13.3506V73.9072H10.6777V76.6621C10.6777 77.0723 10.778 77.3776 10.9785 77.5781C11.179 77.7786 11.4434 77.8789 11.7715 77.8789C12.1725 77.8789 12.471 77.7627 12.667 77.5303C12.863 77.2979 12.9792 77.0176 13.0156 76.6895L14.2598 76.9697Z"/>
<path d="M21.7793 72.6289L19.0312 80.2441C18.8262 80.7956 18.5277 81.1738 18.1357 81.3789C17.7438 81.584 17.2767 81.6865 16.7344 81.6865C16.5475 81.6865 16.347 81.6683 16.1328 81.6318C15.9186 81.5954 15.6953 81.5339 15.4629 81.4473L15.7568 80.1484C15.9528 80.2214 16.1328 80.2715 16.2969 80.2988C16.4609 80.3307 16.6068 80.3467 16.7344 80.3467C17.1582 80.3467 17.4476 80.1598 17.6025 79.7861L17.8555 79.1709L15.4219 72.6289H16.8916L18.6416 77.4482L20.2617 72.6289H21.7793Z"/>
<path d="M23.4404 72.6289H24.8555V73.2031C25.1243 72.9616 25.3955 72.7816 25.6689 72.6631C25.9469 72.54 26.2637 72.4785 26.6191 72.4785C27.0293 72.4785 27.4098 72.5628 27.7607 72.7314C28.1117 72.8955 28.4124 73.1257 28.6631 73.4219C28.9137 73.7135 29.112 74.0667 29.2578 74.4814C29.4036 74.8916 29.4766 75.3382 29.4766 75.8213C29.4766 76.3089 29.4036 76.7578 29.2578 77.168C29.112 77.5781 28.9137 77.9313 28.6631 78.2275C28.4124 78.5192 28.1117 78.7471 27.7607 78.9111C27.4098 79.0752 27.0293 79.1572 26.6191 79.1572C26.2637 79.1572 25.9469 79.0934 25.6689 78.9658C25.3955 78.8382 25.1243 78.6536 24.8555 78.4121V81.5498H23.4404V72.6289ZM24.8555 77.291C25.0241 77.4779 25.2383 77.6237 25.498 77.7285C25.7624 77.8288 26.0153 77.8789 26.2568 77.8789C26.79 77.8789 27.223 77.6898 27.5557 77.3115C27.8929 76.9333 28.0615 76.4365 28.0615 75.8213C28.0615 75.2061 27.8929 74.707 27.5557 74.3242C27.223 73.9414 26.79 73.75 26.2568 73.75C26.0153 73.75 25.7624 73.8001 25.498 73.9004C25.2383 73.9961 25.0241 74.1374 24.8555 74.3242V77.291Z"/>
<path d="M32.0469 76.3545C32.1152 76.792 32.3226 77.1566 32.6689 77.4482C33.0199 77.7354 33.4893 77.8789 34.0771 77.8789C34.5374 77.8789 34.9362 77.8083 35.2734 77.667C35.6152 77.5212 35.9092 77.3298 36.1553 77.0928L36.8799 78.0908C36.4697 78.501 36.0345 78.7812 35.5742 78.9316C35.1185 79.082 34.6195 79.1572 34.0771 79.1572C33.585 79.1572 33.127 79.0752 32.7031 78.9111C32.2793 78.7471 31.9124 78.5192 31.6025 78.2275C31.2926 77.9313 31.0488 77.5804 30.8711 77.1748C30.6979 76.7692 30.6113 76.318 30.6113 75.8213C30.6113 75.3382 30.6911 74.8939 30.8506 74.4883C31.0146 74.0781 31.2425 73.7249 31.5342 73.4287C31.8304 73.1279 32.1836 72.8955 32.5938 72.7314C33.0039 72.5628 33.4574 72.4785 33.9541 72.4785C34.4691 72.4785 34.9362 72.5674 35.3555 72.7451C35.7747 72.9183 36.1325 73.1712 36.4287 73.5039C36.7295 73.8366 36.9642 74.2445 37.1328 74.7275C37.3014 75.2061 37.3857 75.7484 37.3857 76.3545H32.0469ZM35.7861 75.1104C35.7132 74.7002 35.5013 74.3721 35.1504 74.126C34.7995 73.8753 34.4007 73.75 33.9541 73.75C33.5075 73.75 33.1064 73.8753 32.751 74.126C32.3955 74.3721 32.1813 74.7002 32.1084 75.1104H35.7861Z"/>
<path d="M44.5225 78.0908C44.1123 78.501 43.6794 78.7812 43.2236 78.9316C42.7725 79.082 42.2826 79.1572 41.7539 79.1572C41.2207 79.1572 40.7354 79.0775 40.2979 78.918C39.8649 78.7585 39.4958 78.5352 39.1904 78.248C38.8896 77.9564 38.6572 77.6055 38.4932 77.1953C38.3337 76.7852 38.2539 76.3271 38.2539 75.8213C38.2539 75.3382 38.3337 74.8916 38.4932 74.4814C38.6572 74.0667 38.876 73.7135 39.1494 73.4219C39.4274 73.1257 39.7533 72.8955 40.127 72.7314C40.5007 72.5628 40.8971 72.4785 41.3164 72.4785C41.7539 72.4785 42.1344 72.5697 42.458 72.752C42.7816 72.9342 43.0163 73.2008 43.1621 73.5518V72.6289H44.4268V75.5957H43.1621C43.1621 75.0352 43.0072 74.5885 42.6973 74.2559C42.3919 73.9186 41.9932 73.75 41.501 73.75C41.305 73.75 41.0977 73.791 40.8789 73.873C40.6647 73.9505 40.4665 74.0736 40.2842 74.2422C40.1064 74.4108 39.9583 74.625 39.8398 74.8848C39.7214 75.1445 39.6621 75.4567 39.6621 75.8213C39.6621 76.1768 39.7191 76.4844 39.833 76.7441C39.9469 76.9993 40.0951 77.2113 40.2773 77.3799C40.4642 77.5439 40.6829 77.6693 40.9336 77.7559C41.1888 77.8379 41.4508 77.8789 41.7197 77.8789C42.18 77.8789 42.5788 77.8083 42.916 77.667C43.2578 77.5212 43.5518 77.3298 43.7979 77.0928L44.5225 78.0908Z"/>
<path d="M52.0693 79H50.6543V75.0693C50.6543 74.5726 50.5609 74.2285 50.374 74.0371C50.1872 73.8457 49.916 73.75 49.5605 73.75C49.0365 73.75 48.6081 73.9619 48.2754 74.3857C47.9473 74.8096 47.7832 75.3952 47.7832 76.1426V79H46.3682V70.0791H47.7832V74.2285C47.9245 73.6771 48.1865 73.2487 48.5693 72.9434C48.9521 72.6335 49.4238 72.4785 49.9844 72.4785C50.6361 72.4785 51.1465 72.6904 51.5156 73.1143C51.8848 73.5381 52.0693 74.1898 52.0693 75.0693V79Z"/>
<path d="M53.6484 77.168C53.6484 76.7943 53.7487 76.4684 53.9492 76.1904C54.1497 75.9079 54.4118 75.6732 54.7354 75.4863C55.0635 75.2995 55.4372 75.1605 55.8564 75.0693C56.2803 74.9736 56.7109 74.9258 57.1484 74.9258C57.39 74.9258 57.5973 74.9303 57.7705 74.9395C57.9437 74.9486 58.1191 74.9622 58.2969 74.9805V74.7275C58.2969 74.3949 58.167 74.1465 57.9072 73.9824C57.652 73.8184 57.3148 73.7363 56.8955 73.7363C56.5127 73.7363 56.123 73.791 55.7266 73.9004C55.3301 74.0052 54.9541 74.1602 54.5986 74.3652L54.0244 73.2578C54.4437 73.0163 54.8926 72.8271 55.3711 72.6904C55.8542 72.5492 56.3623 72.4785 56.8955 72.4785C57.2419 72.4785 57.5814 72.5173 57.9141 72.5947C58.2513 72.6722 58.5521 72.7998 58.8164 72.9775C59.0853 73.1553 59.2995 73.3877 59.459 73.6748C59.6185 73.9574 59.6982 74.3083 59.6982 74.7275V79H58.2969V78.0635C58.0736 78.4098 57.7432 78.6787 57.3057 78.8701C56.8727 79.0615 56.4056 79.1572 55.9043 79.1572C55.5944 79.1572 55.3005 79.1139 55.0225 79.0273C54.749 78.9453 54.512 78.82 54.3115 78.6514C54.111 78.4827 53.9492 78.2754 53.8262 78.0293C53.7077 77.7786 53.6484 77.4915 53.6484 77.168ZM56.2666 77.8926C56.5446 77.8926 56.8044 77.8584 57.0459 77.79C57.292 77.7171 57.5085 77.6191 57.6953 77.4961C57.8822 77.3685 58.028 77.2158 58.1328 77.0381C58.2422 76.8604 58.2969 76.6644 58.2969 76.4502V76.2109C58.0736 76.1745 57.8639 76.154 57.668 76.1494C57.472 76.1449 57.2988 76.1426 57.1484 76.1426C56.4557 76.1426 55.9316 76.2337 55.5762 76.416C55.2253 76.5983 55.0498 76.8239 55.0498 77.0928C55.0498 77.626 55.4554 77.8926 56.2666 77.8926Z"/>
<path d="M67.5322 74.1396C67.3636 74.0576 67.1904 73.9961 67.0127 73.9551C66.8395 73.9095 66.639 73.8867 66.4111 73.8867C66.0967 73.8867 65.8005 73.9346 65.5225 74.0303C65.249 74.1214 65.012 74.2604 64.8115 74.4473C64.611 74.6341 64.4538 74.8688 64.3398 75.1514C64.2305 75.4294 64.1758 75.7598 64.1758 76.1426V77.7285H65.6045V79H61.3184V77.7285H62.7607V73.9072H61.3184V72.6289H64.1758V74.2285C64.4082 73.5905 64.75 73.1393 65.2012 72.875C65.6569 72.6107 66.1969 72.4785 66.8213 72.4785C67.0173 72.4785 67.2223 72.499 67.4365 72.54C67.6507 72.5811 67.8604 72.654 68.0654 72.7588L67.5322 74.1396Z"/>
<path d="M68.7354 74.5361C68.7354 73.9391 68.7992 73.3626 68.9268 72.8066C69.0544 72.2507 69.2526 71.7607 69.5215 71.3369C69.7904 70.9131 70.1413 70.5736 70.5742 70.3184C71.0117 70.0586 71.5381 69.9287 72.1533 69.9287C72.7686 69.9287 73.2926 70.0586 73.7256 70.3184C74.1631 70.5736 74.5186 70.9131 74.792 71.3369C75.0654 71.7607 75.2637 72.2507 75.3867 72.8066C75.5098 73.3626 75.5713 73.9391 75.5713 74.5361C75.5713 75.1331 75.5098 75.7096 75.3867 76.2656C75.2637 76.8171 75.0677 77.3092 74.7988 77.7422C74.5299 78.1706 74.1768 78.5146 73.7393 78.7744C73.3063 79.0296 72.7777 79.1572 72.1533 79.1572C71.529 79.1572 70.998 79.0296 70.5605 78.7744C70.1276 78.5146 69.7744 78.1706 69.501 77.7422C69.2321 77.3092 69.0384 76.8171 68.9199 76.2656C68.7969 75.7096 68.7354 75.1331 68.7354 74.5361ZM70.1504 74.5361C70.1504 74.9554 70.1777 75.361 70.2324 75.7529L73.7324 72.2393C73.5775 71.9294 73.3724 71.6787 73.1172 71.4873C72.8665 71.2959 72.5452 71.2002 72.1533 71.2002C71.5016 71.2002 71.0049 71.4941 70.6631 72.082C70.3213 72.6699 70.1504 73.488 70.1504 74.5361ZM72.1533 77.8789C72.5544 77.8789 72.8825 77.7809 73.1377 77.585C73.3975 77.389 73.6003 77.1338 73.7461 76.8193C73.8965 76.5003 74.0013 76.1403 74.0605 75.7393C74.1243 75.3382 74.1562 74.9372 74.1562 74.5361C74.1562 74.1533 74.1289 73.7796 74.0742 73.415L70.6016 76.9014C70.7565 77.1976 70.9548 77.4346 71.1963 77.6123C71.4424 77.79 71.7614 77.8789 72.1533 77.8789Z"/>
<path d="M61.1777 20.6312C60.7585 20.6732 60.3355 20.6923 59.9163 20.6961C57.6346 20.699 55.388 20.1379 53.3797 19.0633C51.3714 17.9888 49.6646 16.4347 48.4135 14.5414V35.5008C48.4142 38.5658 47.4988 41.5622 45.783 44.111C44.0672 46.6598 41.628 48.6465 38.7741 49.8198C35.9201 50.993 32.7796 51.3002 29.7496 50.7024C26.7197 50.1047 23.9365 48.6288 21.7521 46.4615C19.5677 44.2942 18.0801 41.5328 17.4776 38.5267C16.8751 35.5205 17.1848 32.4046 18.3673 29.573C19.5499 26.7415 21.5522 24.3215 24.1212 22.6191C26.6901 20.9168 29.7102 20.0085 32.7994 20.0093C33.1263 20.0093 33.4417 20.0398 33.7647 20.0589V27.6902C32.6888 27.5609 31.5975 27.6512 30.558 27.9557C29.5185 28.2602 28.5527 28.7724 27.7201 29.4608C26.8874 30.1492 26.2054 30.9992 25.716 31.9587C25.2267 32.9182 24.9402 33.9668 24.8743 35.0402C24.8083 36.1135 24.9643 37.1889 25.3327 38.2003C25.701 39.2116 26.274 40.1375 27.0162 40.9212C27.7585 41.7048 28.6544 42.3295 29.6489 42.7569C30.6435 43.1844 31.7156 43.4056 32.7994 43.4068C34.9384 43.4453 37.007 42.6492 38.5605 41.19C40.114 39.7308 41.0282 37.7249 41.1064 35.6038L41.1833 0H48.5442C48.8803 3.17254 50.3298 6.12688 52.6392 8.34636C54.9487 10.5658 57.971 11.9092 61.1777 12.1414V20.6312Z"/>
</mask>
<path d="M6.83594 74.3242C6.83594 74.6341 6.80859 74.9486 6.75391 75.2676C6.70378 75.5866 6.61263 75.876 6.48047 76.1357C6.35286 76.391 6.17969 76.6006 5.96094 76.7646C5.74219 76.9287 5.46419 77.0107 5.12695 77.0107C5.00391 77.0107 4.88086 76.988 4.75781 76.9424C4.63932 76.8923 4.53223 76.8239 4.43652 76.7373C4.34082 76.6462 4.26335 76.5391 4.2041 76.416C4.14486 76.293 4.11523 76.1585 4.11523 76.0127V75.9443C4.07422 76.0947 4.01497 76.236 3.9375 76.3682C3.86458 76.4958 3.77572 76.6074 3.6709 76.7031C3.56608 76.7988 3.44987 76.874 3.32227 76.9287C3.19466 76.9834 3.05794 77.0107 2.91211 77.0107C2.63411 77.0107 2.39941 76.9447 2.20801 76.8125C2.02116 76.6803 1.87077 76.5049 1.75684 76.2861C1.6429 76.0674 1.56087 75.819 1.51074 75.541C1.46061 75.263 1.43555 74.9782 1.43555 74.6865C1.43555 74.3493 1.47201 74.028 1.54492 73.7227C1.6224 73.4128 1.73405 73.1416 1.87988 72.9092C2.03027 72.6722 2.21257 72.4854 2.42676 72.3486C2.64095 72.2074 2.88704 72.1367 3.16504 72.1367C3.24707 72.1367 3.33138 72.1504 3.41797 72.1777C3.50456 72.2051 3.58659 72.2484 3.66406 72.3076C3.74154 72.3623 3.8099 72.4329 3.86914 72.5195C3.93294 72.6061 3.98079 72.7064 4.0127 72.8203V72.2666H5.11328V75.6504C5.11328 75.7962 5.13607 75.901 5.18164 75.9648C5.23177 76.0286 5.29557 76.0605 5.37305 76.0605C5.47331 76.0605 5.55762 76.015 5.62598 75.9238C5.69889 75.8327 5.75814 75.7096 5.80371 75.5547C5.84928 75.3952 5.88118 75.2106 5.89941 75.001C5.9222 74.7868 5.93359 74.5612 5.93359 74.3242C5.93359 73.8457 5.88802 73.39 5.79688 72.957C5.70573 72.5241 5.5599 72.1436 5.35938 71.8154C5.16341 71.4873 4.90365 71.2275 4.58008 71.0361C4.26107 70.8402 3.8737 70.7422 3.41797 70.7422C2.95768 70.7422 2.56576 70.8424 2.24219 71.043C1.92318 71.2389 1.66341 71.5078 1.46289 71.8496C1.26693 72.1914 1.12337 72.5947 1.03223 73.0596C0.945638 73.5199 0.902344 74.0166 0.902344 74.5498C0.902344 75.0739 0.945638 75.5661 1.03223 76.0264C1.12337 76.4867 1.26693 76.8877 1.46289 77.2295C1.66341 77.5713 1.92318 77.8424 2.24219 78.043C2.56576 78.2389 2.95768 78.3369 3.41797 78.3369C3.79167 78.3369 4.12435 78.2708 4.41602 78.1387C4.71224 78.0065 4.9834 77.8288 5.22949 77.6055L5.63281 78.2754C5.04948 78.8633 4.3112 79.1572 3.41797 79.1572C2.9987 79.1572 2.62272 79.1003 2.29004 78.9863C1.96191 78.8678 1.67025 78.7038 1.41504 78.4941C1.16439 78.2845 0.947917 78.0361 0.765625 77.749C0.587891 77.4619 0.442057 77.1475 0.328125 76.8057C0.214193 76.4639 0.132161 76.1016 0.0820312 75.7188C0.0273438 75.3359 0 74.9463 0 74.5498C0 74.1442 0.0273438 73.75 0.0820312 73.3672C0.136719 72.9798 0.221029 72.6152 0.334961 72.2734C0.448893 71.9316 0.594727 71.6172 0.772461 71.3301C0.954753 71.043 1.1735 70.7969 1.42871 70.5918C1.68392 70.3822 1.97559 70.2204 2.30371 70.1064C2.63184 69.988 3.00326 69.9287 3.41797 69.9287C3.82812 69.9287 4.19727 69.988 4.52539 70.1064C4.85807 70.2204 5.14974 70.3799 5.40039 70.585C5.6556 70.79 5.87207 71.0316 6.0498 71.3096C6.2321 71.5876 6.38021 71.8906 6.49414 72.2188C6.61263 72.5423 6.69922 72.8841 6.75391 73.2441C6.80859 73.5996 6.83594 73.9596 6.83594 74.3242ZM4.0127 73.5586C3.93066 73.3854 3.8304 73.2624 3.71191 73.1895C3.59798 73.1165 3.48405 73.0801 3.37012 73.0801C3.2334 73.0801 3.11491 73.1211 3.01465 73.2031C2.91439 73.2852 2.83008 73.3991 2.76172 73.5449C2.69792 73.6862 2.65007 73.8548 2.61816 74.0508C2.59082 74.2467 2.57715 74.4564 2.57715 74.6797C2.57715 74.9258 2.59082 75.1331 2.61816 75.3018C2.65007 75.4658 2.69336 75.598 2.74805 75.6982C2.80729 75.7985 2.87793 75.8691 2.95996 75.9102C3.04199 75.9512 3.13542 75.9717 3.24023 75.9717C3.35417 75.9717 3.45898 75.9329 3.55469 75.8555C3.65039 75.7734 3.73242 75.6686 3.80078 75.541C3.86914 75.4134 3.92155 75.2721 3.95801 75.1172C3.99447 74.9577 4.0127 74.7982 4.0127 74.6387V73.5586Z" fill="white"/>
<path d="M14.2598 76.9697C14.1868 77.6396 13.9225 78.1729 13.4668 78.5693C13.0156 78.9613 12.4505 79.1572 11.7715 79.1572C11.3978 79.1572 11.056 79.0957 10.7461 78.9727C10.4362 78.8496 10.1719 78.6787 9.95312 78.46C9.73438 78.2412 9.56348 77.9792 9.44043 77.6738C9.32194 77.3639 9.2627 77.0267 9.2627 76.6621V73.9072H7.82031V72.6289H9.2627V70.0791H10.6777V72.6289H13.3506V73.9072H10.6777V76.6621C10.6777 77.0723 10.778 77.3776 10.9785 77.5781C11.179 77.7786 11.4434 77.8789 11.7715 77.8789C12.1725 77.8789 12.471 77.7627 12.667 77.5303C12.863 77.2979 12.9792 77.0176 13.0156 76.6895L14.2598 76.9697Z" fill="white"/>
<path d="M21.7793 72.6289L19.0312 80.2441C18.8262 80.7956 18.5277 81.1738 18.1357 81.3789C17.7438 81.584 17.2767 81.6865 16.7344 81.6865C16.5475 81.6865 16.347 81.6683 16.1328 81.6318C15.9186 81.5954 15.6953 81.5339 15.4629 81.4473L15.7568 80.1484C15.9528 80.2214 16.1328 80.2715 16.2969 80.2988C16.4609 80.3307 16.6068 80.3467 16.7344 80.3467C17.1582 80.3467 17.4476 80.1598 17.6025 79.7861L17.8555 79.1709L15.4219 72.6289H16.8916L18.6416 77.4482L20.2617 72.6289H21.7793Z" fill="white"/>
<path d="M23.4404 72.6289H24.8555V73.2031C25.1243 72.9616 25.3955 72.7816 25.6689 72.6631C25.9469 72.54 26.2637 72.4785 26.6191 72.4785C27.0293 72.4785 27.4098 72.5628 27.7607 72.7314C28.1117 72.8955 28.4124 73.1257 28.6631 73.4219C28.9137 73.7135 29.112 74.0667 29.2578 74.4814C29.4036 74.8916 29.4766 75.3382 29.4766 75.8213C29.4766 76.3089 29.4036 76.7578 29.2578 77.168C29.112 77.5781 28.9137 77.9313 28.6631 78.2275C28.4124 78.5192 28.1117 78.7471 27.7607 78.9111C27.4098 79.0752 27.0293 79.1572 26.6191 79.1572C26.2637 79.1572 25.9469 79.0934 25.6689 78.9658C25.3955 78.8382 25.1243 78.6536 24.8555 78.4121V81.5498H23.4404V72.6289ZM24.8555 77.291C25.0241 77.4779 25.2383 77.6237 25.498 77.7285C25.7624 77.8288 26.0153 77.8789 26.2568 77.8789C26.79 77.8789 27.223 77.6898 27.5557 77.3115C27.8929 76.9333 28.0615 76.4365 28.0615 75.8213C28.0615 75.2061 27.8929 74.707 27.5557 74.3242C27.223 73.9414 26.79 73.75 26.2568 73.75C26.0153 73.75 25.7624 73.8001 25.498 73.9004C25.2383 73.9961 25.0241 74.1374 24.8555 74.3242V77.291Z" fill="white"/>
<path d="M32.0469 76.3545C32.1152 76.792 32.3226 77.1566 32.6689 77.4482C33.0199 77.7354 33.4893 77.8789 34.0771 77.8789C34.5374 77.8789 34.9362 77.8083 35.2734 77.667C35.6152 77.5212 35.9092 77.3298 36.1553 77.0928L36.8799 78.0908C36.4697 78.501 36.0345 78.7812 35.5742 78.9316C35.1185 79.082 34.6195 79.1572 34.0771 79.1572C33.585 79.1572 33.127 79.0752 32.7031 78.9111C32.2793 78.7471 31.9124 78.5192 31.6025 78.2275C31.2926 77.9313 31.0488 77.5804 30.8711 77.1748C30.6979 76.7692 30.6113 76.318 30.6113 75.8213C30.6113 75.3382 30.6911 74.8939 30.8506 74.4883C31.0146 74.0781 31.2425 73.7249 31.5342 73.4287C31.8304 73.1279 32.1836 72.8955 32.5938 72.7314C33.0039 72.5628 33.4574 72.4785 33.9541 72.4785C34.4691 72.4785 34.9362 72.5674 35.3555 72.7451C35.7747 72.9183 36.1325 73.1712 36.4287 73.5039C36.7295 73.8366 36.9642 74.2445 37.1328 74.7275C37.3014 75.2061 37.3857 75.7484 37.3857 76.3545H32.0469ZM35.7861 75.1104C35.7132 74.7002 35.5013 74.3721 35.1504 74.126C34.7995 73.8753 34.4007 73.75 33.9541 73.75C33.5075 73.75 33.1064 73.8753 32.751 74.126C32.3955 74.3721 32.1813 74.7002 32.1084 75.1104H35.7861Z" fill="white"/>
<path d="M44.5225 78.0908C44.1123 78.501 43.6794 78.7812 43.2236 78.9316C42.7725 79.082 42.2826 79.1572 41.7539 79.1572C41.2207 79.1572 40.7354 79.0775 40.2979 78.918C39.8649 78.7585 39.4958 78.5352 39.1904 78.248C38.8896 77.9564 38.6572 77.6055 38.4932 77.1953C38.3337 76.7852 38.2539 76.3271 38.2539 75.8213C38.2539 75.3382 38.3337 74.8916 38.4932 74.4814C38.6572 74.0667 38.876 73.7135 39.1494 73.4219C39.4274 73.1257 39.7533 72.8955 40.127 72.7314C40.5007 72.5628 40.8971 72.4785 41.3164 72.4785C41.7539 72.4785 42.1344 72.5697 42.458 72.752C42.7816 72.9342 43.0163 73.2008 43.1621 73.5518V72.6289H44.4268V75.5957H43.1621C43.1621 75.0352 43.0072 74.5885 42.6973 74.2559C42.3919 73.9186 41.9932 73.75 41.501 73.75C41.305 73.75 41.0977 73.791 40.8789 73.873C40.6647 73.9505 40.4665 74.0736 40.2842 74.2422C40.1064 74.4108 39.9583 74.625 39.8398 74.8848C39.7214 75.1445 39.6621 75.4567 39.6621 75.8213C39.6621 76.1768 39.7191 76.4844 39.833 76.7441C39.9469 76.9993 40.0951 77.2113 40.2773 77.3799C40.4642 77.5439 40.6829 77.6693 40.9336 77.7559C41.1888 77.8379 41.4508 77.8789 41.7197 77.8789C42.18 77.8789 42.5788 77.8083 42.916 77.667C43.2578 77.5212 43.5518 77.3298 43.7979 77.0928L44.5225 78.0908Z" fill="white"/>
<path d="M52.0693 79H50.6543V75.0693C50.6543 74.5726 50.5609 74.2285 50.374 74.0371C50.1872 73.8457 49.916 73.75 49.5605 73.75C49.0365 73.75 48.6081 73.9619 48.2754 74.3857C47.9473 74.8096 47.7832 75.3952 47.7832 76.1426V79H46.3682V70.0791H47.7832V74.2285C47.9245 73.6771 48.1865 73.2487 48.5693 72.9434C48.9521 72.6335 49.4238 72.4785 49.9844 72.4785C50.6361 72.4785 51.1465 72.6904 51.5156 73.1143C51.8848 73.5381 52.0693 74.1898 52.0693 75.0693V79Z" fill="white"/>
<path d="M53.6484 77.168C53.6484 76.7943 53.7487 76.4684 53.9492 76.1904C54.1497 75.9079 54.4118 75.6732 54.7354 75.4863C55.0635 75.2995 55.4372 75.1605 55.8564 75.0693C56.2803 74.9736 56.7109 74.9258 57.1484 74.9258C57.39 74.9258 57.5973 74.9303 57.7705 74.9395C57.9437 74.9486 58.1191 74.9622 58.2969 74.9805V74.7275C58.2969 74.3949 58.167 74.1465 57.9072 73.9824C57.652 73.8184 57.3148 73.7363 56.8955 73.7363C56.5127 73.7363 56.123 73.791 55.7266 73.9004C55.3301 74.0052 54.9541 74.1602 54.5986 74.3652L54.0244 73.2578C54.4437 73.0163 54.8926 72.8271 55.3711 72.6904C55.8542 72.5492 56.3623 72.4785 56.8955 72.4785C57.2419 72.4785 57.5814 72.5173 57.9141 72.5947C58.2513 72.6722 58.5521 72.7998 58.8164 72.9775C59.0853 73.1553 59.2995 73.3877 59.459 73.6748C59.6185 73.9574 59.6982 74.3083 59.6982 74.7275V79H58.2969V78.0635C58.0736 78.4098 57.7432 78.6787 57.3057 78.8701C56.8727 79.0615 56.4056 79.1572 55.9043 79.1572C55.5944 79.1572 55.3005 79.1139 55.0225 79.0273C54.749 78.9453 54.512 78.82 54.3115 78.6514C54.111 78.4827 53.9492 78.2754 53.8262 78.0293C53.7077 77.7786 53.6484 77.4915 53.6484 77.168ZM56.2666 77.8926C56.5446 77.8926 56.8044 77.8584 57.0459 77.79C57.292 77.7171 57.5085 77.6191 57.6953 77.4961C57.8822 77.3685 58.028 77.2158 58.1328 77.0381C58.2422 76.8604 58.2969 76.6644 58.2969 76.4502V76.2109C58.0736 76.1745 57.8639 76.154 57.668 76.1494C57.472 76.1449 57.2988 76.1426 57.1484 76.1426C56.4557 76.1426 55.9316 76.2337 55.5762 76.416C55.2253 76.5983 55.0498 76.8239 55.0498 77.0928C55.0498 77.626 55.4554 77.8926 56.2666 77.8926Z" fill="white"/>
<path d="M67.5322 74.1396C67.3636 74.0576 67.1904 73.9961 67.0127 73.9551C66.8395 73.9095 66.639 73.8867 66.4111 73.8867C66.0967 73.8867 65.8005 73.9346 65.5225 74.0303C65.249 74.1214 65.012 74.2604 64.8115 74.4473C64.611 74.6341 64.4538 74.8688 64.3398 75.1514C64.2305 75.4294 64.1758 75.7598 64.1758 76.1426V77.7285H65.6045V79H61.3184V77.7285H62.7607V73.9072H61.3184V72.6289H64.1758V74.2285C64.4082 73.5905 64.75 73.1393 65.2012 72.875C65.6569 72.6107 66.1969 72.4785 66.8213 72.4785C67.0173 72.4785 67.2223 72.499 67.4365 72.54C67.6507 72.5811 67.8604 72.654 68.0654 72.7588L67.5322 74.1396Z" fill="white"/>
<path d="M68.7354 74.5361C68.7354 73.9391 68.7992 73.3626 68.9268 72.8066C69.0544 72.2507 69.2526 71.7607 69.5215 71.3369C69.7904 70.9131 70.1413 70.5736 70.5742 70.3184C71.0117 70.0586 71.5381 69.9287 72.1533 69.9287C72.7686 69.9287 73.2926 70.0586 73.7256 70.3184C74.1631 70.5736 74.5186 70.9131 74.792 71.3369C75.0654 71.7607 75.2637 72.2507 75.3867 72.8066C75.5098 73.3626 75.5713 73.9391 75.5713 74.5361C75.5713 75.1331 75.5098 75.7096 75.3867 76.2656C75.2637 76.8171 75.0677 77.3092 74.7988 77.7422C74.5299 78.1706 74.1768 78.5146 73.7393 78.7744C73.3063 79.0296 72.7777 79.1572 72.1533 79.1572C71.529 79.1572 70.998 79.0296 70.5605 78.7744C70.1276 78.5146 69.7744 78.1706 69.501 77.7422C69.2321 77.3092 69.0384 76.8171 68.9199 76.2656C68.7969 75.7096 68.7354 75.1331 68.7354 74.5361ZM70.1504 74.5361C70.1504 74.9554 70.1777 75.361 70.2324 75.7529L73.7324 72.2393C73.5775 71.9294 73.3724 71.6787 73.1172 71.4873C72.8665 71.2959 72.5452 71.2002 72.1533 71.2002C71.5016 71.2002 71.0049 71.4941 70.6631 72.082C70.3213 72.6699 70.1504 73.488 70.1504 74.5361ZM72.1533 77.8789C72.5544 77.8789 72.8825 77.7809 73.1377 77.585C73.3975 77.389 73.6003 77.1338 73.7461 76.8193C73.8965 76.5003 74.0013 76.1403 74.0605 75.7393C74.1243 75.3382 74.1562 74.9372 74.1562 74.5361C74.1562 74.1533 74.1289 73.7796 74.0742 73.415L70.6016 76.9014C70.7565 77.1976 70.9548 77.4346 71.1963 77.6123C71.4424 77.79 71.7614 77.8789 72.1533 77.8789Z" fill="white"/>
<path d="M61.1777 20.6312C60.7585 20.6732 60.3355 20.6923 59.9163 20.6961C57.6346 20.699 55.388 20.1379 53.3797 19.0633C51.3714 17.9888 49.6646 16.4347 48.4135 14.5414V35.5008C48.4142 38.5658 47.4988 41.5622 45.783 44.111C44.0672 46.6598 41.628 48.6465 38.7741 49.8198C35.9201 50.993 32.7796 51.3002 29.7496 50.7024C26.7197 50.1047 23.9365 48.6288 21.7521 46.4615C19.5677 44.2942 18.0801 41.5328 17.4776 38.5267C16.8751 35.5205 17.1848 32.4046 18.3673 29.573C19.5499 26.7415 21.5522 24.3215 24.1212 22.6191C26.6901 20.9168 29.7102 20.0085 32.7994 20.0093C33.1263 20.0093 33.4417 20.0398 33.7647 20.0589V27.6902C32.6888 27.5609 31.5975 27.6512 30.558 27.9557C29.5185 28.2602 28.5527 28.7724 27.7201 29.4608C26.8874 30.1492 26.2054 30.9992 25.716 31.9587C25.2267 32.9182 24.9402 33.9668 24.8743 35.0402C24.8083 36.1135 24.9643 37.1889 25.3327 38.2003C25.701 39.2116 26.274 40.1375 27.0162 40.9212C27.7585 41.7048 28.6544 42.3295 29.6489 42.7569C30.6435 43.1844 31.7156 43.4056 32.7994 43.4068C34.9384 43.4453 37.007 42.6492 38.5605 41.19C40.114 39.7308 41.0282 37.7249 41.1064 35.6038L41.1833 0H48.5442C48.8803 3.17254 50.3298 6.12688 52.6392 8.34636C54.9487 10.5658 57.971 11.9092 61.1777 12.1414V20.6312Z" fill="white"/>
<path d="M6.83594 74.3242C6.83594 74.6341 6.80859 74.9486 6.75391 75.2676C6.70378 75.5866 6.61263 75.876 6.48047 76.1357C6.35286 76.391 6.17969 76.6006 5.96094 76.7646C5.74219 76.9287 5.46419 77.0107 5.12695 77.0107C5.00391 77.0107 4.88086 76.988 4.75781 76.9424C4.63932 76.8923 4.53223 76.8239 4.43652 76.7373C4.34082 76.6462 4.26335 76.5391 4.2041 76.416C4.14486 76.293 4.11523 76.1585 4.11523 76.0127V75.9443C4.07422 76.0947 4.01497 76.236 3.9375 76.3682C3.86458 76.4958 3.77572 76.6074 3.6709 76.7031C3.56608 76.7988 3.44987 76.874 3.32227 76.9287C3.19466 76.9834 3.05794 77.0107 2.91211 77.0107C2.63411 77.0107 2.39941 76.9447 2.20801 76.8125C2.02116 76.6803 1.87077 76.5049 1.75684 76.2861C1.6429 76.0674 1.56087 75.819 1.51074 75.541C1.46061 75.263 1.43555 74.9782 1.43555 74.6865C1.43555 74.3493 1.47201 74.028 1.54492 73.7227C1.6224 73.4128 1.73405 73.1416 1.87988 72.9092C2.03027 72.6722 2.21257 72.4854 2.42676 72.3486C2.64095 72.2074 2.88704 72.1367 3.16504 72.1367C3.24707 72.1367 3.33138 72.1504 3.41797 72.1777C3.50456 72.2051 3.58659 72.2484 3.66406 72.3076C3.74154 72.3623 3.8099 72.4329 3.86914 72.5195C3.93294 72.6061 3.98079 72.7064 4.0127 72.8203V72.2666H5.11328V75.6504C5.11328 75.7962 5.13607 75.901 5.18164 75.9648C5.23177 76.0286 5.29557 76.0605 5.37305 76.0605C5.47331 76.0605 5.55762 76.015 5.62598 75.9238C5.69889 75.8327 5.75814 75.7096 5.80371 75.5547C5.84928 75.3952 5.88118 75.2106 5.89941 75.001C5.9222 74.7868 5.93359 74.5612 5.93359 74.3242C5.93359 73.8457 5.88802 73.39 5.79688 72.957C5.70573 72.5241 5.5599 72.1436 5.35938 71.8154C5.16341 71.4873 4.90365 71.2275 4.58008 71.0361C4.26107 70.8402 3.8737 70.7422 3.41797 70.7422C2.95768 70.7422 2.56576 70.8424 2.24219 71.043C1.92318 71.2389 1.66341 71.5078 1.46289 71.8496C1.26693 72.1914 1.12337 72.5947 1.03223 73.0596C0.945638 73.5199 0.902344 74.0166 0.902344 74.5498C0.902344 75.0739 0.945638 75.5661 1.03223 76.0264C1.12337 76.4867 1.26693 76.8877 1.46289 77.2295C1.66341 77.5713 1.92318 77.8424 2.24219 78.043C2.56576 78.2389 2.95768 78.3369 3.41797 78.3369C3.79167 78.3369 4.12435 78.2708 4.41602 78.1387C4.71224 78.0065 4.9834 77.8288 5.22949 77.6055L5.63281 78.2754C5.04948 78.8633 4.3112 79.1572 3.41797 79.1572C2.9987 79.1572 2.62272 79.1003 2.29004 78.9863C1.96191 78.8678 1.67025 78.7038 1.41504 78.4941C1.16439 78.2845 0.947917 78.0361 0.765625 77.749C0.587891 77.4619 0.442057 77.1475 0.328125 76.8057C0.214193 76.4639 0.132161 76.1016 0.0820312 75.7188C0.0273438 75.3359 0 74.9463 0 74.5498C0 74.1442 0.0273438 73.75 0.0820312 73.3672C0.136719 72.9798 0.221029 72.6152 0.334961 72.2734C0.448893 71.9316 0.594727 71.6172 0.772461 71.3301C0.954753 71.043 1.1735 70.7969 1.42871 70.5918C1.68392 70.3822 1.97559 70.2204 2.30371 70.1064C2.63184 69.988 3.00326 69.9287 3.41797 69.9287C3.82812 69.9287 4.19727 69.988 4.52539 70.1064C4.85807 70.2204 5.14974 70.3799 5.40039 70.585C5.6556 70.79 5.87207 71.0316 6.0498 71.3096C6.2321 71.5876 6.38021 71.8906 6.49414 72.2188C6.61263 72.5423 6.69922 72.8841 6.75391 73.2441C6.80859 73.5996 6.83594 73.9596 6.83594 74.3242ZM4.0127 73.5586C3.93066 73.3854 3.8304 73.2624 3.71191 73.1895C3.59798 73.1165 3.48405 73.0801 3.37012 73.0801C3.2334 73.0801 3.11491 73.1211 3.01465 73.2031C2.91439 73.2852 2.83008 73.3991 2.76172 73.5449C2.69792 73.6862 2.65007 73.8548 2.61816 74.0508C2.59082 74.2467 2.57715 74.4564 2.57715 74.6797C2.57715 74.9258 2.59082 75.1331 2.61816 75.3018C2.65007 75.4658 2.69336 75.598 2.74805 75.6982C2.80729 75.7985 2.87793 75.8691 2.95996 75.9102C3.04199 75.9512 3.13542 75.9717 3.24023 75.9717C3.35417 75.9717 3.45898 75.9329 3.55469 75.8555C3.65039 75.7734 3.73242 75.6686 3.80078 75.541C3.86914 75.4134 3.92155 75.2721 3.95801 75.1172C3.99447 74.9577 4.0127 74.7982 4.0127 74.6387V73.5586Z" stroke="white" stroke-width="2" mask="url(#path-1-inside-1_42_41)"/>
<path d="M14.2598 76.9697C14.1868 77.6396 13.9225 78.1729 13.4668 78.5693C13.0156 78.9613 12.4505 79.1572 11.7715 79.1572C11.3978 79.1572 11.056 79.0957 10.7461 78.9727C10.4362 78.8496 10.1719 78.6787 9.95312 78.46C9.73438 78.2412 9.56348 77.9792 9.44043 77.6738C9.32194 77.3639 9.2627 77.0267 9.2627 76.6621V73.9072H7.82031V72.6289H9.2627V70.0791H10.6777V72.6289H13.3506V73.9072H10.6777V76.6621C10.6777 77.0723 10.778 77.3776 10.9785 77.5781C11.179 77.7786 11.4434 77.8789 11.7715 77.8789C12.1725 77.8789 12.471 77.7627 12.667 77.5303C12.863 77.2979 12.9792 77.0176 13.0156 76.6895L14.2598 76.9697Z" stroke="white" stroke-width="2" mask="url(#path-1-inside-1_42_41)"/>
<path d="M21.7793 72.6289L19.0312 80.2441C18.8262 80.7956 18.5277 81.1738 18.1357 81.3789C17.7438 81.584 17.2767 81.6865 16.7344 81.6865C16.5475 81.6865 16.347 81.6683 16.1328 81.6318C15.9186 81.5954 15.6953 81.5339 15.4629 81.4473L15.7568 80.1484C15.9528 80.2214 16.1328 80.2715 16.2969 80.2988C16.4609 80.3307 16.6068 80.3467 16.7344 80.3467C17.1582 80.3467 17.4476 80.1598 17.6025 79.7861L17.8555 79.1709L15.4219 72.6289H16.8916L18.6416 77.4482L20.2617 72.6289H21.7793Z" stroke="white" stroke-width="2" mask="url(#path-1-inside-1_42_41)"/>
<path d="M23.4404 72.6289H24.8555V73.2031C25.1243 72.9616 25.3955 72.7816 25.6689 72.6631C25.9469 72.54 26.2637 72.4785 26.6191 72.4785C27.0293 72.4785 27.4098 72.5628 27.7607 72.7314C28.1117 72.8955 28.4124 73.1257 28.6631 73.4219C28.9137 73.7135 29.112 74.0667 29.2578 74.4814C29.4036 74.8916 29.4766 75.3382 29.4766 75.8213C29.4766 76.3089 29.4036 76.7578 29.2578 77.168C29.112 77.5781 28.9137 77.9313 28.6631 78.2275C28.4124 78.5192 28.1117 78.7471 27.7607 78.9111C27.4098 79.0752 27.0293 79.1572 26.6191 79.1572C26.2637 79.1572 25.9469 79.0934 25.6689 78.9658C25.3955 78.8382 25.1243 78.6536 24.8555 78.4121V81.5498H23.4404V72.6289ZM24.8555 77.291C25.0241 77.4779 25.2383 77.6237 25.498 77.7285C25.7624 77.8288 26.0153 77.8789 26.2568 77.8789C26.79 77.8789 27.223 77.6898 27.5557 77.3115C27.8929 76.9333 28.0615 76.4365 28.0615 75.8213C28.0615 75.2061 27.8929 74.707 27.5557 74.3242C27.223 73.9414 26.79 73.75 26.2568 73.75C26.0153 73.75 25.7624 73.8001 25.498 73.9004C25.2383 73.9961 25.0241 74.1374 24.8555 74.3242V77.291Z" stroke="white" stroke-width="2" mask="url(#path-1-inside-1_42_41)"/>
<path d="M32.0469 76.3545C32.1152 76.792 32.3226 77.1566 32.6689 77.4482C33.0199 77.7354 33.4893 77.8789 34.0771 77.8789C34.5374 77.8789 34.9362 77.8083 35.2734 77.667C35.6152 77.5212 35.9092 77.3298 36.1553 77.0928L36.8799 78.0908C36.4697 78.501 36.0345 78.7812 35.5742 78.9316C35.1185 79.082 34.6195 79.1572 34.0771 79.1572C33.585 79.1572 33.127 79.0752 32.7031 78.9111C32.2793 78.7471 31.9124 78.5192 31.6025 78.2275C31.2926 77.9313 31.0488 77.5804 30.8711 77.1748C30.6979 76.7692 30.6113 76.318 30.6113 75.8213C30.6113 75.3382 30.6911 74.8939 30.8506 74.4883C31.0146 74.0781 31.2425 73.7249 31.5342 73.4287C31.8304 73.1279 32.1836 72.8955 32.5938 72.7314C33.0039 72.5628 33.4574 72.4785 33.9541 72.4785C34.4691 72.4785 34.9362 72.5674 35.3555 72.7451C35.7747 72.9183 36.1325 73.1712 36.4287 73.5039C36.7295 73.8366 36.9642 74.2445 37.1328 74.7275C37.3014 75.2061 37.3857 75.7484 37.3857 76.3545H32.0469ZM35.7861 75.1104C35.7132 74.7002 35.5013 74.3721 35.1504 74.126C34.7995 73.8753 34.4007 73.75 33.9541 73.75C33.5075 73.75 33.1064 73.8753 32.751 74.126C32.3955 74.3721 32.1813 74.7002 32.1084 75.1104H35.7861Z" stroke="white" stroke-width="2" mask="url(#path-1-inside-1_42_41)"/>
<path d="M44.5225 78.0908C44.1123 78.501 43.6794 78.7812 43.2236 78.9316C42.7725 79.082 42.2826 79.1572 41.7539 79.1572C41.2207 79.1572 40.7354 79.0775 40.2979 78.918C39.8649 78.7585 39.4958 78.5352 39.1904 78.248C38.8896 77.9564 38.6572 77.6055 38.4932 77.1953C38.3337 76.7852 38.2539 76.3271 38.2539 75.8213C38.2539 75.3382 38.3337 74.8916 38.4932 74.4814C38.6572 74.0667 38.876 73.7135 39.1494 73.4219C39.4274 73.1257 39.7533 72.8955 40.127 72.7314C40.5007 72.5628 40.8971 72.4785 41.3164 72.4785C41.7539 72.4785 42.1344 72.5697 42.458 72.752C42.7816 72.9342 43.0163 73.2008 43.1621 73.5518V72.6289H44.4268V75.5957H43.1621C43.1621 75.0352 43.0072 74.5885 42.6973 74.2559C42.3919 73.9186 41.9932 73.75 41.501 73.75C41.305 73.75 41.0977 73.791 40.8789 73.873C40.6647 73.9505 40.4665 74.0736 40.2842 74.2422C40.1064 74.4108 39.9583 74.625 39.8398 74.8848C39.7214 75.1445 39.6621 75.4567 39.6621 75.8213C39.6621 76.1768 39.7191 76.4844 39.833 76.7441C39.9469 76.9993 40.0951 77.2113 40.2773 77.3799C40.4642 77.5439 40.6829 77.6693 40.9336 77.7559C41.1888 77.8379 41.4508 77.8789 41.7197 77.8789C42.18 77.8789 42.5788 77.8083 42.916 77.667C43.2578 77.5212 43.5518 77.3298 43.7979 77.0928L44.5225 78.0908Z" stroke="white" stroke-width="2" mask="url(#path-1-inside-1_42_41)"/>
<path d="M52.0693 79H50.6543V75.0693C50.6543 74.5726 50.5609 74.2285 50.374 74.0371C50.1872 73.8457 49.916 73.75 49.5605 73.75C49.0365 73.75 48.6081 73.9619 48.2754 74.3857C47.9473 74.8096 47.7832 75.3952 47.7832 76.1426V79H46.3682V70.0791H47.7832V74.2285C47.9245 73.6771 48.1865 73.2487 48.5693 72.9434C48.9521 72.6335 49.4238 72.4785 49.9844 72.4785C50.6361 72.4785 51.1465 72.6904 51.5156 73.1143C51.8848 73.5381 52.0693 74.1898 52.0693 75.0693V79Z" stroke="white" stroke-width="2" mask="url(#path-1-inside-1_42_41)"/>
<path d="M53.6484 77.168C53.6484 76.7943 53.7487 76.4684 53.9492 76.1904C54.1497 75.9079 54.4118 75.6732 54.7354 75.4863C55.0635 75.2995 55.4372 75.1605 55.8564 75.0693C56.2803 74.9736 56.7109 74.9258 57.1484 74.9258C57.39 74.9258 57.5973 74.9303 57.7705 74.9395C57.9437 74.9486 58.1191 74.9622 58.2969 74.9805V74.7275C58.2969 74.3949 58.167 74.1465 57.9072 73.9824C57.652 73.8184 57.3148 73.7363 56.8955 73.7363C56.5127 73.7363 56.123 73.791 55.7266 73.9004C55.3301 74.0052 54.9541 74.1602 54.5986 74.3652L54.0244 73.2578C54.4437 73.0163 54.8926 72.8271 55.3711 72.6904C55.8542 72.5492 56.3623 72.4785 56.8955 72.4785C57.2419 72.4785 57.5814 72.5173 57.9141 72.5947C58.2513 72.6722 58.5521 72.7998 58.8164 72.9775C59.0853 73.1553 59.2995 73.3877 59.459 73.6748C59.6185 73.9574 59.6982 74.3083 59.6982 74.7275V79H58.2969V78.0635C58.0736 78.4098 57.7432 78.6787 57.3057 78.8701C56.8727 79.0615 56.4056 79.1572 55.9043 79.1572C55.5944 79.1572 55.3005 79.1139 55.0225 79.0273C54.749 78.9453 54.512 78.82 54.3115 78.6514C54.111 78.4827 53.9492 78.2754 53.8262 78.0293C53.7077 77.7786 53.6484 77.4915 53.6484 77.168ZM56.2666 77.8926C56.5446 77.8926 56.8044 77.8584 57.0459 77.79C57.292 77.7171 57.5085 77.6191 57.6953 77.4961C57.8822 77.3685 58.028 77.2158 58.1328 77.0381C58.2422 76.8604 58.2969 76.6644 58.2969 76.4502V76.2109C58.0736 76.1745 57.8639 76.154 57.668 76.1494C57.472 76.1449 57.2988 76.1426 57.1484 76.1426C56.4557 76.1426 55.9316 76.2337 55.5762 76.416C55.2253 76.5983 55.0498 76.8239 55.0498 77.0928C55.0498 77.626 55.4554 77.8926 56.2666 77.8926Z" stroke="white" stroke-width="2" mask="url(#path-1-inside-1_42_41)"/>
<path d="M67.5322 74.1396C67.3636 74.0576 67.1904 73.9961 67.0127 73.9551C66.8395 73.9095 66.639 73.8867 66.4111 73.8867C66.0967 73.8867 65.8005 73.9346 65.5225 74.0303C65.249 74.1214 65.012 74.2604 64.8115 74.4473C64.611 74.6341 64.4538 74.8688 64.3398 75.1514C64.2305 75.4294 64.1758 75.7598 64.1758 76.1426V77.7285H65.6045V79H61.3184V77.7285H62.7607V73.9072H61.3184V72.6289H64.1758V74.2285C64.4082 73.5905 64.75 73.1393 65.2012 72.875C65.6569 72.6107 66.1969 72.4785 66.8213 72.4785C67.0173 72.4785 67.2223 72.499 67.4365 72.54C67.6507 72.5811 67.8604 72.654 68.0654 72.7588L67.5322 74.1396Z" stroke="white" stroke-width="2" mask="url(#path-1-inside-1_42_41)"/>
<path d="M68.7354 74.5361C68.7354 73.9391 68.7992 73.3626 68.9268 72.8066C69.0544 72.2507 69.2526 71.7607 69.5215 71.3369C69.7904 70.9131 70.1413 70.5736 70.5742 70.3184C71.0117 70.0586 71.5381 69.9287 72.1533 69.9287C72.7686 69.9287 73.2926 70.0586 73.7256 70.3184C74.1631 70.5736 74.5186 70.9131 74.792 71.3369C75.0654 71.7607 75.2637 72.2507 75.3867 72.8066C75.5098 73.3626 75.5713 73.9391 75.5713 74.5361C75.5713 75.1331 75.5098 75.7096 75.3867 76.2656C75.2637 76.8171 75.0677 77.3092 74.7988 77.7422C74.5299 78.1706 74.1768 78.5146 73.7393 78.7744C73.3063 79.0296 72.7777 79.1572 72.1533 79.1572C71.529 79.1572 70.998 79.0296 70.5605 78.7744C70.1276 78.5146 69.7744 78.1706 69.501 77.7422C69.2321 77.3092 69.0384 76.8171 68.9199 76.2656C68.7969 75.7096 68.7354 75.1331 68.7354 74.5361ZM70.1504 74.5361C70.1504 74.9554 70.1777 75.361 70.2324 75.7529L73.7324 72.2393C73.5775 71.9294 73.3724 71.6787 73.1172 71.4873C72.8665 71.2959 72.5452 71.2002 72.1533 71.2002C71.5016 71.2002 71.0049 71.4941 70.6631 72.082C70.3213 72.6699 70.1504 73.488 70.1504 74.5361ZM72.1533 77.8789C72.5544 77.8789 72.8825 77.7809 73.1377 77.585C73.3975 77.389 73.6003 77.1338 73.7461 76.8193C73.8965 76.5003 74.0013 76.1403 74.0605 75.7393C74.1243 75.3382 74.1562 74.9372 74.1562 74.5361C74.1562 74.1533 74.1289 73.7796 74.0742 73.415L70.6016 76.9014C70.7565 77.1976 70.9548 77.4346 71.1963 77.6123C71.4424 77.79 71.7614 77.8789 72.1533 77.8789Z" stroke="white" stroke-width="2" mask="url(#path-1-inside-1_42_41)"/>
<path d="M61.1777 20.6312C60.7585 20.6732 60.3355 20.6923 59.9163 20.6961C57.6346 20.699 55.388 20.1379 53.3797 19.0633C51.3714 17.9888 49.6646 16.4347 48.4135 14.5414V35.5008C48.4142 38.5658 47.4988 41.5622 45.783 44.111C44.0672 46.6598 41.628 48.6465 38.7741 49.8198C35.9201 50.993 32.7796 51.3002 29.7496 50.7024C26.7197 50.1047 23.9365 48.6288 21.7521 46.4615C19.5677 44.2942 18.0801 41.5328 17.4776 38.5267C16.8751 35.5205 17.1848 32.4046 18.3673 29.573C19.5499 26.7415 21.5522 24.3215 24.1212 22.6191C26.6901 20.9168 29.7102 20.0085 32.7994 20.0093C33.1263 20.0093 33.4417 20.0398 33.7647 20.0589V27.6902C32.6888 27.5609 31.5975 27.6512 30.558 27.9557C29.5185 28.2602 28.5527 28.7724 27.7201 29.4608C26.8874 30.1492 26.2054 30.9992 25.716 31.9587C25.2267 32.9182 24.9402 33.9668 24.8743 35.0402C24.8083 36.1135 24.9643 37.1889 25.3327 38.2003C25.701 39.2116 26.274 40.1375 27.0162 40.9212C27.7585 41.7048 28.6544 42.3295 29.6489 42.7569C30.6435 43.1844 31.7156 43.4056 32.7994 43.4068C34.9384 43.4453 37.007 42.6492 38.5605 41.19C40.114 39.7308 41.0282 37.7249 41.1064 35.6038L41.1833 0H48.5442C48.8803 3.17254 50.3298 6.12688 52.6392 8.34636C54.9487 10.5658 57.971 11.9092 61.1777 12.1414V20.6312Z" stroke="white" stroke-width="2" mask="url(#path-1-inside-1_42_41)"/>
</svg>
